<svg width="850" height="852" viewBox="0 0 850 852" fill="none" xmlns="http://www.w3.org/2000/svg">
<path d="M347.304 272.752C345.094 269.76 341.795 267.41 339.938 268.648C338.105 269.879 339.39 274.188 341.078 275.432C342.813 276.66 346.176 279.305 347.255 278.435C348.3 277.573 348.838 274.843 347.304 272.752Z" fill="#6B3BE7" fill-opacity="0.75"/>
<path d="M441.09 340.919C438.272 339.145 430.097 336.912 427.214 338.642C424.329 340.381 422.66 352.315 435.349 353.67C448.037 355.024 447.081 344.648 441.089 340.918L441.09 340.919Z" fill="#6B3BE7" fill-opacity="0.75"/>
<path d="M435.809 365.336C433.489 359.037 431.98 355.524 426.062 357.395C420.137 359.242 412.424 366.727 413.54 372.722C414.657 378.728 415.041 387.375 422.343 384.405C429.63 381.461 432.949 379.816 434.558 375.248C436.144 370.729 437.034 368.583 435.809 365.337L435.809 365.336Z" fill="#6B3BE7" fill-opacity="0.75"/>
<path d="M408.39 355.507C408.253 351.829 405.425 344.75 396.874 345.823C388.331 346.914 389.233 351.718 387.814 358.851C386.41 365.958 392.789 370.006 399.285 366.43C405.77 362.855 408.531 359.475 408.391 355.507L408.39 355.507Z" fill="#6B3BE7" fill-opacity="0.75"/>
<path d="M355.752 334.911C357.815 331.55 358.388 325.023 354.825 320.862C351.255 316.663 344.473 308.859 338.135 315.241C331.78 321.627 326.809 329.183 328.648 335.099C330.479 340.997 328.836 343.469 334.141 348.237C339.439 352.981 343.904 353.863 340.794 356.697C337.685 359.558 335.195 365.091 335.395 369.971C335.57 374.878 336.393 383.605 343.282 389.81C350.135 396.03 351.826 395.671 354.189 394.29C356.547 392.906 355.63 397.579 360.926 402.329C366.229 407.102 366.041 405.674 366.253 411.705C366.443 417.77 366.05 419.785 367.556 422.632C369.077 425.467 376.3 432.23 374.348 436.222C372.41 440.246 369.736 444.353 372.37 449.736C375.015 455.116 382.003 457.176 383.611 460.738C385.224 464.314 382.814 464.751 385.301 469.847C387.74 474.993 391.758 474.618 393.87 478.042C395.967 481.461 397.516 479.078 397.987 481.212C398.444 483.342 398.139 482.669 398.421 485.738C398.706 488.797 400.667 489.183 401.331 490.75C401.997 492.308 400.067 493.17 400.696 495.318C401.33 497.498 400.063 498.502 400.817 500.064C401.597 501.614 403.929 502.8 404.442 503.717C404.994 504.627 405.313 505.215 404.42 506.528C403.533 507.869 402.405 510.488 402.856 511.735C403.319 512.992 403.739 512.703 404.419 516.042C405.08 519.358 405.503 520.444 404.999 522.536C404.481 524.666 406.022 525.853 404.649 527.805C403.289 529.767 403.697 529.574 402.357 531.344C401.031 533.134 400.922 534.092 400.922 534.092C400.922 534.092 398.538 532.741 397.576 528.545C396.636 524.372 396.268 523.054 394.599 521.215C392.919 519.377 387.427 514.365 386.75 510.598C386.068 506.814 386.899 504.4 384.235 499.977C381.554 495.526 377.608 495.198 377.414 490.871C377.181 486.583 379.424 486.956 377.75 482.878C376.066 478.797 375.319 476.807 372.989 475.544C370.661 474.271 368.962 474.292 364.874 474.836C360.754 475.353 359.899 475.265 359.6 477.686C359.294 480.125 358.769 481 358.074 479.972C357.395 478.944 353.477 474.015 351.947 469.165C350.419 464.336 349.973 463.452 348.257 460.968C346.513 458.5 345.089 454.923 344.711 453.256C344.321 451.596 339.949 446.362 339.764 443.662C339.57 440.959 338.348 434.157 335.812 429.05C333.284 423.904 330.797 422.083 330.488 419.618C330.17 417.181 327.821 414.675 326.99 411.215C326.163 407.773 325.482 404.963 323.731 401.256C321.969 397.504 322.356 399.624 322.229 395.782C322.118 391.939 320.964 389.148 320.071 387.894C319.151 386.656 319.739 385.525 320.184 385.963C320.63 386.412 322.404 385.967 322.922 387.395C323.431 388.835 325.462 389.847 327.401 389.889C329.349 389.908 334.283 388.753 332.681 383.028C331.053 377.284 327.391 377.359 325.645 378.07C323.912 378.802 322.518 381.297 321.907 382.582C321.309 383.893 320.16 385.609 319.417 384.841C318.686 384.068 318.438 384.898 317.904 383.486C317.414 382.037 317.259 381.459 316.658 380.029C316.047 378.579 314.285 375.822 313.507 372.119C312.721 368.408 311.273 364.566 310.805 361.464C310.364 358.355 310.058 354.471 307.932 348.638C305.807 342.788 305.44 337.83 303.911 333.441C302.384 329.063 299.784 323.84 298.858 318.518C297.961 313.171 293.319 306.141 293.6 304.3C293.863 302.495 293.162 297.038 291.411 287.982C289.638 278.944 286.711 273.56 285.899 267.267C285.111 260.978 284.378 253.916 284.273 252.114C284.194 250.311 283.505 247.524 285.766 240.968C288.048 234.392 292.673 225.878 282.833 217.722C272.977 209.569 265.257 210.885 261.265 216.759C257.26 222.64 255.624 226.837 255.44 235.401C255.243 244.003 257.796 248.131 262.097 249.783C266.392 251.422 271.318 256.587 275.45 259.086C279.572 261.582 279.292 262.071 279.389 265.185C279.489 268.327 280.815 276.48 281.818 279.45C282.835 282.392 282.103 283.394 282.086 287.035C282.079 290.689 285.172 297.038 286.115 300.898C287.047 304.718 288.137 312.212 288.457 315.577C288.763 318.906 290.168 321.696 291.896 326.464C293.622 331.246 294.239 334.39 293.632 337.018C293.02 339.66 292.539 342.122 291.076 342.817C289.596 343.5 287.965 346.824 286.943 348.401C285.922 349.963 284.593 352.632 283.707 353.957C282.835 355.314 282.78 355.562 281.642 357.293C280.492 359.013 279.8 360.307 280.727 360.939C281.669 361.587 282.571 361.059 283.205 358.325C283.822 355.595 285.907 351.387 286.462 350.428C287.007 349.466 288.769 346.35 290.114 344.928C291.457 343.51 291.062 343.262 292.933 343.276C294.792 343.306 295.002 344.479 296.171 345.767C297.334 347.074 298.553 349.904 298.154 351.048C297.742 352.23 296.799 353.913 297.554 354.496C298.328 355.101 299.16 356.758 300.252 359.303C301.352 361.829 301.469 362.996 302.697 366.249C303.907 369.526 303.91 369.967 304.908 373.07C305.876 376.227 307.108 379.92 308.258 381.673C309.426 383.4 309.453 384.133 307.322 384.144C305.191 384.171 303.613 383.678 302.494 386.122C301.385 388.565 301.56 389.475 299.999 389.716C298.45 389.951 297.551 391.372 295.005 388.907C292.488 386.437 288.799 386.167 288.939 385.031C289.064 383.907 289.399 381.744 288.64 381.516C287.899 381.268 286.428 381.52 285.275 380.663C284.093 379.816 283.36 379.576 280.652 378.432C277.943 377.278 276.73 374.461 274.675 375.379C272.635 376.302 273.543 374.9 271.085 378.297C268.629 381.721 269.314 384.097 266.499 386.731C263.656 389.385 262.96 391.547 262.824 394.009C262.708 396.431 263.391 397.387 265.284 400.431C267.17 403.467 269.584 408.291 271.814 409.184C274.039 410.059 275.006 410.155 276.799 410.513C278.59 410.86 281.043 411.459 284.475 414.343C287.905 417.231 288.095 418.083 290.761 418.52C293.427 418.958 294.107 418.21 295.962 416.001C297.821 413.779 300.562 404.823 300.804 403.618C301.038 402.422 300.858 398.461 302.673 398.214C304.496 397.959 306.67 399.1 307.994 398.744C309.298 398.387 310.18 397.568 311.667 397.615C313.185 397.636 313.738 398.002 313.979 399.474C314.203 400.935 314.721 402.829 315.78 404.645C316.87 406.434 318.311 406.643 317.791 408.84C317.271 411.053 320.067 412.212 320.048 413.635C320.037 415.077 320.615 416.096 321.181 417.776C321.737 419.489 322.074 421.765 323.293 424.595C324.51 427.43 327.279 431.884 327.855 433.84C328.442 435.821 328.15 435.578 328.921 439.734C329.7 443.888 330.972 446.008 332.109 447.028C333.217 448.058 335.021 449.285 335.532 452.146C336.011 455.01 338.661 457.386 339.639 458.293C340.618 459.195 340.778 461.53 341.458 463.967C342.122 466.436 343.005 467.404 344.229 469.664C345.476 471.975 347.949 475.1 349.357 478.771C350.786 482.423 350.991 480.876 351.461 486.106C351.924 491.36 352.755 493.048 353.442 497.254C354.114 501.47 354.304 501.437 352.993 504.909C351.685 508.376 351.304 507.573 350.139 509.503C348.963 511.372 349.354 512.085 348.057 514.153C346.769 516.192 345.109 517.813 344.194 518.888C343.279 519.952 345.555 520.997 345.887 522.957C346.202 524.88 346.399 527.636 344.848 530.055C343.312 532.475 343.057 531.961 341.97 532.688C340.877 533.433 340.658 534.556 338.848 535.256C337.059 535.983 337.45 537.01 336.533 537.419C335.618 537.817 334.575 537.144 333.849 539.013C333.124 540.898 332.499 540.994 333.541 543.579C334.569 546.159 336.591 546.654 338.033 546.607C339.451 546.536 341.116 545.429 342.223 546.339C343.332 547.276 344.908 547.716 344.002 548.736C343.077 549.734 339.915 552.057 338.551 554.164C337.176 556.246 337.139 558.261 336.756 560.8C336.365 563.335 336.462 567.623 337.338 569.783C338.215 571.985 340.858 574.772 343.274 576.903C345.698 579.027 347.663 579.896 348.808 580.127C349.941 580.35 352.52 580.495 354.439 581.588C356.353 582.68 357.863 581.053 359.061 579.768C360.263 578.469 361.171 576.271 362.745 576.113C364.314 575.942 364.695 574.021 366.759 572.504C368.839 571.034 368.835 568.686 370.858 568.595C372.886 568.516 375.515 566.656 375.02 564.922C374.539 563.162 374.494 559.248 373.761 558.149C373.019 557.047 371.901 555.52 372.205 554.049C372.5 552.586 371.75 550.396 373.429 550.269C375.108 550.127 377.478 550.12 379.213 553.303C380.945 556.495 382.37 555.954 382.154 560.044C381.927 564.135 383.279 565.125 384.733 565.522C386.211 565.928 387.621 565.278 388.935 563.525C390.218 561.751 390.062 559.601 391.737 561.212C393.431 562.861 396.443 566.767 398.469 569.191C400.479 571.585 402.521 575.66 405.072 578.305C407.629 580.931 412.214 583.53 413.347 587.986C414.481 592.488 416.215 596.273 419.613 599.433C423.021 602.581 426.168 603.411 428.201 608.113C430.242 612.764 429.952 614.842 430.947 617.065C431.931 619.278 437.535 625.004 442.192 627.802C446.837 630.616 449.401 632.668 451.267 633.989C453.139 635.276 454.873 637.29 455.172 639.375C455.48 641.437 455.005 645.624 457.478 646.33C459.941 647.047 460.504 645.975 463.643 648.631C466.8 651.252 466.474 651.662 468.332 654.882C470.18 658.099 469.173 657.276 470.862 660.59C472.591 663.896 473.817 666.644 476.584 667.064C479.35 667.484 479.825 666.256 480.555 664.284C481.304 662.303 478.836 660.499 477.173 657.473C475.538 654.409 474.422 652.877 472.859 651.756C471.313 650.615 469.529 648.835 468.07 646.649C466.592 644.473 463.014 641.617 463.069 640.122C463.14 638.581 465.419 634.299 465.581 630.426C465.75 626.545 462.574 622.252 459.048 623.317C455.513 624.411 458.006 627.989 457.412 629.18C456.824 630.342 454.75 630.641 454.457 629.753C454.169 628.882 449.99 623.061 445.502 618.054C441.072 613.03 430.076 600.305 426.752 595.023C423.409 589.75 418.126 581.102 413.994 576.26C409.864 571.426 406.135 568.794 404.693 565.792C403.272 562.793 396.449 555.405 395.558 553.936C394.674 552.444 395.465 546.569 396.653 545.957C397.841 545.375 397.289 544.57 398.796 545.913C400.293 547.268 408.451 553.979 409.273 557.001C410.105 559.994 411.393 561.213 413.762 564.874C416.116 568.55 419.081 574.456 420.345 576.464C421.606 578.496 425.697 584.763 428.891 587.758C432.093 590.761 434.285 593.443 435.229 592.315C436.164 591.195 431.098 584.389 430.151 582.089C429.175 579.747 424.564 571.276 423.259 570.166C421.919 569.081 416.763 561.661 416.233 559.548C415.706 557.437 414.329 554.792 413.714 553.73C413.097 552.645 411.75 551.085 412.663 550.66C413.576 550.25 415.326 549.755 416.52 550.37C417.709 550.958 420.845 550.034 423.232 546.943C425.623 543.873 426.877 541.628 426.257 534.061C425.616 526.451 422.89 525.93 421.713 524.723C420.512 523.571 417.19 523.03 415.74 523.206C414.27 523.395 413.726 523.138 413.812 522.109C413.902 521.056 414.247 519.332 413.977 517.761C413.689 516.167 413.021 511.743 413.232 510.643C413.464 509.498 413.104 508.335 413.145 505.169C413.186 501.972 412.411 500.408 412.178 499.184C411.963 497.952 411.856 494.263 409.352 493.285C406.799 492.3 404.864 491.913 404.632 490.219C404.352 488.513 400.183 482.711 400.399 481.565C400.631 480.42 398.488 478.122 398.302 477.245C398.126 476.367 398.84 472.141 398.696 469.865C398.552 467.572 395.039 463.209 393.563 461.133C392.056 459.083 392.651 457.409 392.437 454.191C392.253 450.932 389.885 444.322 392.84 444.425C395.772 444.536 398.383 447.552 400.004 447.741C401.625 447.929 404.91 448.11 405.876 449.139C406.857 450.172 412.4 449.722 413.712 450.211C415.03 450.712 420.092 449.103 422.261 446.564C424.423 444.029 425.423 441.401 423.81 436.339C422.207 431.29 413.894 421.821 404.715 421.433C395.573 421.043 396.758 423.997 394.944 425.429C393.118 426.835 390.009 428.239 389.417 430.611C388.832 432.979 390.023 434.778 388.589 436.006C387.149 437.265 386.63 437.508 384.552 436.044C382.476 434.561 381.605 432.387 381.144 431.126C380.684 429.829 376.672 421.954 377.316 420.544C377.963 419.125 378.687 418.429 377.697 416.821C376.718 415.196 373.918 414.995 373.569 413.155C373.219 411.304 370.475 404.841 370.6 401.898C370.694 398.971 368.952 392.218 369.156 390.581C369.35 388.973 370.645 386.642 371.471 384.211C372.316 381.745 374.681 376.419 374.235 373.869C373.801 371.282 372.041 367.614 372.032 365.222C372.013 362.889 370.387 359.242 370.716 358.135C371.058 357.003 373.065 353.38 374.115 351.09C375.176 348.815 375.565 343.224 374.219 342.231C372.862 341.239 371.415 339.665 370.409 340.52C369.408 341.407 368.296 343.44 367.109 342.832C365.933 342.254 366.258 342.299 364.558 343.163C362.859 344.006 362.87 344.486 362.062 346.232C361.25 347.961 359.723 349.681 357.547 348.754C355.355 347.859 353.674 345.528 354.515 344.858C355.359 344.183 357.457 341.981 356.32 341.17C355.171 340.35 353.991 339.782 354.028 338.369C354.016 336.93 355.128 335.95 355.752 334.911L355.752 334.911Z" fill="#6B3BE7" fill-opacity="0.75"/>
<path d="M463.958 401.613C464.327 399.757 463.101 396.317 461.079 397.445C459.049 398.592 455.869 401.779 456.498 404.361C457.168 406.916 460.418 407.813 462.202 406.617C463.981 405.451 463.755 402.706 463.958 401.613L463.958 401.613Z" fill="#6B3BE7" fill-opacity="0.75"/>
<path d="M476.706 414.887C475.999 413.038 469.199 410.184 467.494 412.293C465.784 414.374 463.727 413.84 462.234 416.876C460.734 419.916 462.965 420.998 463.874 423.484C464.783 425.97 466.941 429.337 469.493 428.691C472.045 428.057 479.852 422.916 476.706 414.887L476.706 414.887Z" fill="#6B3BE7" fill-opacity="0.75"/>
<path d="M481.513 461.144C480.337 458.748 477.925 453.391 472.59 453.877C467.237 454.337 466.53 456.652 463.123 460.321C459.7 463.994 459.803 463.501 457.834 469.525C455.866 475.529 455.683 480.484 459.046 484.737C462.428 488.997 465.028 492.041 469.637 490.018C474.27 487.998 478.042 484.514 479.505 480.964C480.985 477.441 482.651 473.522 482.606 469.802C482.589 466.082 482.705 463.571 481.513 461.143L481.513 461.144Z" fill="#6B3BE7" fill-opacity="0.75"/>
<path d="M487.48 483.329C486.589 479.995 487.233 478.15 485.075 478.734C482.894 479.34 480.979 479.993 480.446 482.694C479.899 485.405 479.102 486.924 480.549 488.603C482.014 490.292 485.85 489.026 486.606 487.744C487.366 486.511 487.778 484.413 487.481 483.329L487.48 483.329Z" fill="#6B3BE7" fill-opacity="0.75"/>
<path d="M491.052 489.282C491.357 488.21 489.128 487.333 489.084 488.255C489.029 489.148 490.63 490.733 491.052 489.282Z" fill="#6B3BE7" fill-opacity="0.75"/>
<path d="M494.388 501.456C494.332 499.634 492.715 497.043 491.763 498.497C490.847 499.996 489.977 501.757 490.824 502.676C491.678 503.607 494.443 503.146 494.388 501.456L494.388 501.456Z" fill="#6B3BE7" fill-opacity="0.75"/>
<path d="M490.585 507.129C490.924 505.435 488.78 505.876 488.681 506.34C488.585 506.841 490.277 508.735 490.585 507.129Z" fill="#6B3BE7" fill-opacity="0.75"/>
<path d="M491.921 526.829C492.38 525.271 491.706 524.125 489.965 523.769C488.251 523.428 485.635 526.225 485.954 527.31C486.236 528.409 487.376 531.704 489.629 529.975C491.925 528.23 491.549 528.151 491.921 526.829L491.921 526.829Z" fill="#6B3BE7" fill-opacity="0.75"/>
<path d="M505.312 547.162C503.32 544.147 495.812 538.244 491.207 536.921C486.596 535.648 486.863 534.279 481.405 536.651C475.949 539.045 472.337 540.373 471.953 545.022C471.527 549.683 472.501 555.77 475.225 561.419C477.945 567.093 482.034 570.468 484.519 574.007C487.015 577.575 486.961 579.112 485.069 584.87C483.149 590.645 483.438 596.336 490.339 600.884C497.243 605.456 500.306 606.812 499.288 609.972C498.304 613.108 497.903 613.146 497.52 617.026C497.122 620.916 499.009 624.382 501.331 623.044C503.65 621.71 502.729 619.199 503.821 617.51C504.937 615.798 507.052 609.688 511.66 612.909C516.271 616.12 516.43 613.352 516.908 618.05C517.382 622.747 518.394 622.817 518.946 624.587C519.497 626.356 518.682 625.312 517.798 627.188C516.91 629.058 516.487 631.787 518.342 633.529C520.154 635.318 521.401 638.76 523.611 636.629C525.816 634.511 527.489 628.048 526.076 626.12C524.666 624.182 525.135 624.387 523.365 623.031C521.587 621.641 520.836 618.294 521.191 616.542C521.527 614.841 522.673 609.708 521.738 606.574C520.833 603.445 523.046 598.753 522.66 592.918C522.289 587.073 517.467 577.161 511.749 572.332C506.056 567.476 505.131 565.65 505.721 562.696C506.313 559.738 507.175 555.418 507.017 553.603C506.838 551.801 506.903 549.513 505.313 547.162L505.312 547.162Z" fill="#6B3BE7" fill-opacity="0.75"/>
<path d="M544.688 616.58C539.75 613.538 536.4 604.637 534.781 603.779C533.172 602.94 530.866 605.678 530.256 611.422C529.647 617.166 531.858 620.425 533.427 624.127C535.001 627.803 539.222 631.654 542.018 630.093C544.819 628.492 549.497 624.633 549.73 621.665C549.953 618.683 545.955 617.362 544.688 616.58L544.688 616.58Z" fill="#6B3BE7" fill-opacity="0.75"/>
<path d="M587.686 657.043C586.71 651.82 581.577 646.619 578.972 645.391C576.369 644.143 572.227 643.505 570.764 645.552C569.3 647.572 570.601 654.402 571.006 659.625C571.38 664.848 570.459 667.685 575.394 671.502C580.324 675.332 586.176 678.081 588.839 675.416C591.506 672.725 596.409 673.015 596.409 669.453C596.41 665.906 593.62 661.077 591.883 660.032C590.143 658.969 587.865 657.975 587.687 657.044L587.686 657.043Z" fill="#6B3BE7" fill-opacity="0.75"/>
<path d="M611.9 674.649C609.851 671.613 605.578 669.851 604.568 668.587C603.582 667.326 601.94 667.529 601.146 667.912C600.366 668.285 598.691 670.43 600.868 671.053C603.084 671.669 603.71 671.976 605.035 673.481C606.324 674.983 606.671 675.927 608.084 678.693C609.487 681.446 614.32 682.235 616.667 684.668C619.031 687.084 620.245 688.199 622.287 688.608C624.335 689.002 626.26 690.093 625.15 687.594C624.044 685.029 621.848 681.77 619.589 680.615C617.338 679.453 616.039 677.952 615.084 677.399C614.125 676.876 612.325 675.247 611.899 674.649L611.9 674.649Z" fill="#6B3BE7" fill-opacity="0.75"/>
<path d="M638.111 699.349C637.076 698.652 636.705 695.704 635.149 695.403C633.625 695.086 631.85 695.986 631.85 695.986C631.85 695.986 633.392 698.955 634.308 700.563C635.254 702.135 636.406 703.458 637.774 702.825C639.124 702.227 639.21 700.119 638.111 699.349L638.111 699.349Z" fill="#6B3BE7" fill-opacity="0.75"/>
<path d="M665.897 736.665C664.563 733.429 663.634 732.833 662.336 732.228C661.029 731.62 658.883 733.491 659.872 735.659C660.876 737.812 662.416 737.212 663.422 739.36C664.404 741.546 667.279 742.271 667.545 740.908C667.821 739.516 666.142 737.254 665.897 736.665L665.897 736.665Z" fill="#6B3BE7" fill-opacity="0.75"/>
<path d="M532.343 510.829C528.417 508.568 523.764 519.237 523.764 519.237C523.764 519.237 524.194 530.321 527.431 531.617C530.651 532.913 536.51 533.18 538.37 529.438C540.252 525.662 541.693 524.221 540.175 519.904C538.671 515.639 533.615 511.555 532.344 510.828L532.343 510.829Z" fill="#6B3BE7" fill-opacity="0.75"/>
<path d="M538.1 510.745C536.988 508.497 541.253 500.895 542.965 503.331C544.699 505.748 543.905 509.558 543.017 511.611C542.133 513.65 540.286 516.301 539.614 515.029C538.902 513.78 538.881 512.353 538.1 510.745Z" fill="#6B3BE7" fill-opacity="0.75"/>
<path d="M651.616 575.371C647.045 568.543 639.308 576.486 638.293 578.06C637.278 579.634 636.543 586.953 641.459 588.992C646.387 591.009 653.641 593.885 655.747 588.615C657.848 583.355 653.253 577.828 651.616 575.371L651.616 575.371Z" fill="#6B3BE7" fill-opacity="0.75"/>
<path d="M674.391 580.591C674.486 577.643 670.003 575.807 668.896 577.747C667.828 579.638 668.158 581.487 670.486 582.31C672.813 583.132 674.324 582.705 674.391 580.591Z" fill="#6B3BE7" fill-opacity="0.75"/>
<path d="M593.418 522.993C595.357 516.545 588.331 516.306 585.807 518.301C583.287 520.283 583.498 524.606 585.264 526.363C587.064 528.128 592.375 526.36 593.418 522.993Z" fill="#6B3BE7" fill-opacity="0.75"/>
<path d="M594.168 569.418C594.486 567.816 593.276 567.137 593.147 566.458C593.013 565.82 592.148 566.618 591.278 567.866C590.399 569.125 587.961 569.789 588.329 571.034C588.721 572.255 590.81 571.956 592.108 571.691C593.415 571.414 594.168 569.418 594.168 569.418L594.168 569.418Z" fill="#6B3BE7" fill-opacity="0.75"/>
<path d="M570.307 601.657C570.261 600.137 568.743 599.592 568.743 599.592C568.743 599.592 568.068 599.964 567.35 601.768C566.638 603.599 566.28 605.392 568.086 604.33C569.898 603.264 570.323 602.453 570.307 601.657L570.307 601.657Z" fill="#6B3BE7" fill-opacity="0.75"/>
<path d="M586.817 618.265C586.467 617.735 585.782 617.611 585.141 617.288C584.496 616.99 582.837 616.741 583.172 617.434C583.469 618.114 583.734 619.49 584.584 619.755C585.413 619.992 586.44 621.104 586.951 620.313C587.461 619.527 587.23 618.854 586.817 618.265Z" fill="#6B3BE7" fill-opacity="0.75"/>
<path d="M608.751 631.21C607.517 630.482 605.779 630.163 605.779 630.163C605.779 630.163 605.113 632.629 605.792 633.641C606.477 634.666 608.395 634.858 608.629 634.112C608.866 633.372 609.496 631.596 608.751 631.21L608.751 631.21Z" fill="#6B3BE7" fill-opacity="0.75"/>
<path d="M445.695 604.281C444.114 600.492 443.225 598.281 441.019 596.867C438.814 595.454 438.285 593.577 437.22 594.526C436.148 595.451 435.762 598.706 437.183 601.889C438.6 605.097 439.778 606.315 441.277 608.116C442.784 609.925 441.118 611.639 443.982 612.47C446.833 613.291 447.958 614.318 448.238 612.419C448.522 610.522 448.867 608.285 447.634 606.97C446.396 605.652 446.284 605.734 445.695 604.282L445.695 604.281Z" fill="#6B3BE7" fill-opacity="0.75"/>
<path d="M480.027 636.737C479.115 633.825 476.575 631.268 474.702 631.71C472.841 632.135 473.436 633.207 472.36 634.597C471.276 636.006 470.539 637.084 471.315 640.341C472.106 643.603 475.858 646.122 477.373 644.723C478.9 643.348 481.056 640.05 480.027 636.737L480.027 636.737Z" fill="#6B3BE7" fill-opacity="0.75"/>
<path d="M490.468 653.99C490.031 651.082 489.988 649.28 487.708 648.653C485.437 648.029 484.552 647.578 483.844 650.208C483.156 652.828 483.055 653.328 483.267 655.859C483.481 658.385 484.263 660.319 486.979 660.433C489.713 660.511 490.978 657.29 490.468 653.99L490.468 653.99Z" fill="#6B3BE7" fill-opacity="0.75"/>
<path d="M495.248 680.16C494.23 677.866 494.314 674.454 492.854 673.834C491.389 673.182 488.022 672.684 487.221 675.385C486.419 678.045 484.55 680.82 487.453 682.261C490.366 683.717 491.25 683.287 491.29 685.334C491.347 687.381 493.293 687.342 494.029 686.331C494.747 685.308 496.41 682.792 495.248 680.16L495.248 680.16Z" fill="#6B3BE7" fill-opacity="0.75"/>
<path d="M508.068 682.781C505.296 678.786 500.439 672.299 499.371 672.372C498.286 672.418 496.693 671.563 497.973 674.488C499.261 677.404 500.839 678.348 500.32 678.785C499.795 679.194 500.186 680.341 499.521 681C498.848 681.682 497.929 681.839 497.91 683.728C497.887 685.58 496.716 687.917 499.203 689.303C501.686 690.672 505.771 690.766 506.489 691.545C507.228 692.296 507.412 691.364 506.867 694.098C506.326 696.822 507.246 699.788 508.616 701.026C509.955 702.279 511.949 702.57 513.831 704.28C515.726 705.983 516.086 706.769 517.203 706.991C518.317 707.222 521.137 706.435 522.713 707.01C524.272 707.586 524.725 709.383 526.122 708.215C527.493 707.064 529.406 704.613 528.287 703.495C527.183 702.393 525.3 701.484 525.251 700.409C525.201 699.349 524.747 693.124 523.055 692.251C521.362 691.367 518.55 693.032 516.363 691.012C514.202 688.975 514.324 688.834 513.648 687.739C512.975 686.635 511.356 684.981 510.849 684.783C510.365 684.577 508.068 682.781 508.068 682.781L508.068 682.781Z" fill="#6B3BE7" fill-opacity="0.75"/>
<path d="M515.032 710.007C514.709 708.139 513.772 706.486 511.795 706.101C509.829 705.714 508.565 706.274 507.563 707.297C506.556 708.339 505.496 711.857 506.749 714.065C508.014 716.282 508.238 717.382 510.887 717.462C513.545 717.546 514.95 716.223 515.159 715.112C515.387 713.992 515.149 710.754 515.032 710.007L515.032 710.007Z" fill="#6B3BE7" fill-opacity="0.75"/>
<path d="M546.715 724.46C544.071 722.396 542.596 721.504 542.204 719.021C541.8 716.559 541.644 715.986 540.313 715.008C539 714.042 537.836 713.626 536.447 714.797C535.052 715.945 534.952 717.524 535.621 721.66C536.31 725.767 537.56 729.304 539.312 731.34C541.035 733.387 540.428 738.236 542.198 739.65C543.952 741.052 547.519 741.474 549.204 739.18C550.914 736.832 550.238 737.146 550.494 732.222C550.784 727.288 547.328 724.941 546.715 724.46L546.715 724.46Z" fill="#6B3BE7" fill-opacity="0.75"/>
<path d="M566.495 750.647C565.378 748.199 565.363 743.767 562.963 741.966C560.575 740.174 558.126 738.603 557.529 739.384C556.927 740.149 559.325 740.619 559.692 743.712C560.053 746.824 560.326 747.155 558.676 747.077C557.006 747.013 557.047 749.857 557.627 751.934C558.207 753.981 559.068 755.418 560.377 756.472C561.673 757.547 560.254 758.388 562.364 759.443C564.471 760.461 565.342 756.988 566.169 754.961C567.022 752.89 567.098 752.026 566.495 750.647L566.495 750.647Z" fill="#6B3BE7" fill-opacity="0.75"/>
<path d="M527.248 749.285C526.938 747.5 527.072 747.039 525.077 745.94C523.073 744.822 522.539 744.819 521.5 746.463C520.472 748.117 519.448 750.138 520.349 752.27C521.274 754.411 521.62 756.26 523.553 756.29C525.5 756.324 525.979 755.716 526.767 754.45C527.553 753.158 527.539 750.958 527.248 749.285L527.248 749.285Z" fill="#6B3BE7" fill-opacity="0.75"/>
<path d="M516.655 749.777C516.29 746.679 515.501 745.817 514.274 745.216C513.076 744.625 512.572 744.015 510.559 745.655C508.539 747.287 507.156 745.767 507.34 748.021C507.501 750.262 509.669 751.511 510.749 753.223C511.84 754.945 510.861 754.404 512.303 755.662C513.743 756.939 515.179 755.963 516.142 753.773C517.114 751.556 516.655 749.777 516.655 749.777L516.655 749.777Z" fill="#6B3BE7" fill-opacity="0.75"/>
<path d="M500.318 735.897C500.426 735.033 500.179 734.795 500.192 733.825C500.205 732.855 499.872 731.361 499.117 731.124C498.347 730.897 496.986 730.25 496.732 732.886C496.488 735.478 496.162 736.218 496.427 737.154C496.683 738.102 496.826 738.671 497.808 738.227C498.782 737.807 500.146 737.172 500.318 735.897L500.318 735.897Z" fill="#6B3BE7" fill-opacity="0.75"/>
<path d="M537.644 687.663C537.002 686.512 537.118 684.001 535.109 682.011C533.112 680.031 532.116 680.093 531.394 682.419C530.668 684.785 527.939 686.002 528.094 688.262C528.272 690.529 529.439 692.786 530.829 693.789C532.226 694.785 535.082 694.272 536.547 693.662C538.003 693.048 538.38 688.947 537.644 687.663Z" fill="#6B3BE7" fill-opacity="0.75"/>
<path d="M523.656 670.861C524.477 668.193 524.857 664.789 524.711 662.459C524.551 660.093 526.284 658.502 527.015 657.955C527.753 657.37 531.233 653.7 530.781 652.835C530.322 651.942 532.516 650.412 531.705 649.988C530.889 649.551 530.372 649.02 529.208 649.594C528.019 650.149 527.888 651.276 526.846 650.808C525.778 650.326 525.766 648.121 524.099 648.032C522.428 647.973 520.661 648.321 520.089 650.28C519.53 652.212 518.282 651.871 518.407 654.367C518.541 656.881 519.82 657.946 518.889 659.082C517.934 660.243 517.516 659.699 517.224 660.823C516.922 661.886 517.807 663.672 517.774 664.729C517.741 665.786 517.98 666.813 517.116 667.171C516.241 667.532 517.478 668.477 516.02 670.87C514.576 673.238 514.307 674.16 514.685 676.382C515.031 678.573 515.297 681.295 517.144 680.944C518.979 680.609 520.888 681.789 521.536 678.52C522.167 675.267 523.164 672.44 523.656 670.861L523.656 670.861Z" fill="#6B3BE7" fill-opacity="0.75"/>
<path d="M516.255 648.162C516.014 646.794 515.8 645.876 515.349 645.593C514.855 645.326 512.957 645.916 512.329 646.861C511.704 647.795 511.876 650.066 512.9 650.706C513.929 651.348 514.853 652.078 515.388 651.113C515.941 650.158 516.375 648.9 516.255 648.162L516.255 648.162Z" fill="#6B3BE7" fill-opacity="0.75"/>
<path d="M492.036 697.83C491.955 696.848 491.855 696.457 490.978 695.936C490.099 695.394 489.58 696.281 489.018 697.322C488.464 698.355 488.757 700.008 489.753 700.308C490.773 700.596 492.086 698.439 492.036 697.83L492.036 697.83Z" fill="#6B3BE7" fill-opacity="0.75"/>
<path d="M492.181 714.995C492.471 713.037 492.756 711.649 492.232 710.298C491.681 708.964 489.985 709.949 489.985 709.949C489.985 709.949 486.253 714.809 485.904 716.17C485.543 717.521 486.302 719.069 486.331 719.797C486.377 720.521 483.735 721.338 482.838 722.226C481.961 723.119 479.182 726.326 478.166 728.759C477.151 731.234 475.791 734.065 476.397 739.51C477.008 744.984 479.864 748.107 482.543 747.59C485.221 747.046 486.519 746.692 488.131 743.105C489.725 739.511 491.914 737.456 491.287 732.957C490.671 728.504 491.222 729.314 490.199 725.458C489.183 721.625 488.693 720.008 489.291 719.331C489.865 718.646 491.137 718.471 491.343 717.878C491.541 717.282 492.181 714.995 492.181 714.995L492.181 714.995Z" fill="#6B3BE7" fill-opacity="0.75"/>
<path d="M476.382 695.696C476.101 692.821 473.145 688.317 472.023 688.094C470.914 687.88 468.318 689.238 467.057 690.301C465.773 691.399 463.858 695.268 464.592 696.934C465.34 698.588 467.213 699.393 468.675 701.014C470.133 702.648 471.673 703.835 472.518 703.124C473.362 702.386 476.752 699.623 476.382 695.696L476.382 695.696Z" fill="#6B3BE7" fill-opacity="0.75"/>
<path d="M445.466 714.033C443.95 711.77 439.153 706.388 434.57 704.402C429.992 702.429 426.366 697.46 425.416 702.226C424.466 707.008 426.512 709.225 423.375 710.709C420.239 712.235 417.098 719.093 417.098 719.093C417.098 719.093 414.509 723.198 420.482 728.995C426.43 734.789 437.245 737.639 439.504 737.007C441.757 736.388 445.437 733.92 446.448 728.798C447.476 723.656 446.304 715.253 445.467 714.033L445.466 714.033Z" fill="#6B3BE7" fill-opacity="0.75"/>
<path d="M444.005 656.778C436.528 651.508 438.391 656.381 425.767 648.416C413.123 640.476 408.01 638.761 408.01 638.761C408.01 638.761 401.554 636.766 400.674 635.176C399.807 633.59 400.992 632.4 399.166 628.473C397.327 624.552 398.767 623.2 395.399 619.909C392.029 616.653 388.325 620.905 385.544 619.4C382.767 617.913 383.25 613.026 381.164 611.649C379.058 610.296 378.195 607.528 375.695 604.645C373.166 601.819 373.3 602.305 370.565 600.592C367.825 598.851 367.599 596.462 365.946 595.178C364.307 593.899 359.924 592.077 358.329 591.752C356.746 591.44 354.002 589.724 353.24 591.218C352.444 592.733 350.734 595.458 353.059 598.076C355.394 600.635 351.947 606.118 351.208 607.411C350.481 608.682 349.582 610.857 351.229 613.328C352.884 615.765 352.747 617.661 352.747 617.661C352.747 617.661 356.706 622.698 355.07 622.61C353.43 622.52 350.663 622.209 350.103 621.396C349.571 620.577 348.288 618.652 347.134 617.275C346.001 615.837 343.671 613.249 343.482 615.352C343.3 617.452 346.724 621.679 347.229 622.741C347.745 623.77 347.431 625.363 349.069 627.83C350.709 630.278 356.386 638.743 357.946 640.487C359.484 642.223 360.079 643.987 359.228 644.759C358.351 645.548 358.511 647.222 358.65 648.911C358.782 650.592 358.762 652.015 357.604 652.963C356.469 653.919 356.157 656.707 355.539 657.518C354.898 658.348 353.16 661.079 352.85 662.689C352.535 664.282 351.667 666.248 351.667 666.248C351.667 666.248 351.814 666.666 352.375 666.154C352.922 665.638 353.439 663.869 353.931 662.715C354.436 661.581 355.773 659.25 356.318 658.738C356.873 658.229 357.418 657.267 357.532 656.233C357.651 655.2 358.965 653.055 358.965 653.055C358.965 653.055 359.534 650.974 359.839 650.4C360.119 649.837 360.068 648.735 360.695 647.795C361.319 646.861 361.425 645.462 362.114 646.053C362.809 646.615 363.476 648.158 364.467 648.11C365.461 648.038 366.733 648.282 366.733 648.282C366.733 648.282 368.802 649.486 369.534 648.934C370.268 648.362 369.998 647.529 371.326 647.956C372.666 648.397 373.785 648.085 374.367 648.309C374.945 648.5 375.943 648.869 375.799 649.642C375.654 650.419 375.097 651.807 374.443 653.365C373.785 654.922 374.355 657.809 375.043 657.939C375.743 658.067 375.712 659.042 375.712 659.042C375.712 659.042 376.216 662.329 377.082 662.94C377.924 663.559 378.68 664.697 379.292 663.905C379.884 663.137 380.414 662.174 380.101 660.698C379.773 659.205 380.492 657.397 380.492 657.397C380.492 657.397 382.729 657.308 382.982 657.799C383.252 658.287 384.174 658.933 383.781 660.467C383.408 661.971 382.886 663.649 382.933 664.384C382.966 665.102 383.413 665.997 383.849 666.521C384.273 667.046 383.546 667.599 383.156 667.772C382.762 667.97 382.185 666.889 381.531 666.587C380.88 666.276 379.415 666.96 378.982 666.882C378.549 666.8 376.732 665.715 376.324 666.872C375.913 668.049 375.646 668.454 374.616 669.216C373.571 669.988 373.202 672.835 373.467 675.018C373.753 677.219 373.864 680.249 376.218 680.457C378.579 680.672 380.186 680.541 380.638 680.987C381.093 681.423 381.78 681.993 381.78 681.993C381.78 681.993 384.36 682.783 384.923 681.738C385.485 680.697 385.691 679.658 385.486 678.02C385.282 676.382 384.051 674.984 384.664 673.678C385.282 672.385 385.941 671.279 385.81 670.18C385.663 669.071 384.919 668.303 385.865 667.606C386.795 666.92 387.913 667.576 388.253 668.539C388.597 669.491 389.391 671.78 389.391 671.78C389.391 671.78 390.218 673.452 389.329 675.683C388.443 677.909 388.499 678.982 389.052 679.332C389.602 679.723 391.004 679.819 391.924 680.983C392.835 682.171 394.404 683.351 394.36 685.369C394.301 687.402 395.07 688.456 394.225 689.078C393.39 689.699 393.205 691.19 393.418 691.841C393.645 692.512 397.375 692.078 398.395 692.293C399.428 692.485 400.402 692.442 401.157 694.016C401.921 695.581 400.213 695.672 402.202 697.225C404.206 698.793 404.73 699.757 404.192 700.203C403.687 700.629 405.087 702.066 404.864 703.156C404.645 704.28 405.762 705.314 406.802 705.954C407.836 706.608 408.201 707.395 409.362 706.454C410.511 705.534 412.675 702.318 414.222 702.014C415.802 701.69 415.334 701.333 417.095 701.407C418.855 701.497 421.71 701.078 422.418 700.518C423.157 699.964 425.967 698.817 426.942 698.843C427.908 698.854 428.66 698.2 429.193 697.767C429.723 697.329 430.359 695.88 431.587 696.46C432.806 697.052 433.779 699.744 435.334 699.521C436.905 699.283 439.139 696.002 439.243 695.494C439.349 694.98 440.756 691.893 441.514 691.235C442.261 690.579 443.911 688.524 444.508 685.956C445.095 683.431 446.468 681.898 447.022 680.399C447.588 678.925 449.244 678.219 450.085 678.811C450.959 679.414 452.137 679.312 451.891 680.934C451.657 682.581 450.834 682.237 451.116 683.891C451.42 685.558 452.104 687.023 453.048 686.676C454.018 686.328 455.076 680.95 454.837 680.824C454.602 680.685 453.948 679.948 454.001 678.788C454.056 677.623 454.716 676.093 454.542 674.728C454.366 673.341 454.024 672.834 453.176 671.328C452.31 669.816 451.395 667.768 450.675 665.505C449.974 663.249 448.518 660.274 447.177 658.952C445.791 657.609 444.006 656.777 444.006 656.777L444.005 656.778Z" fill="#6B3BE7" fill-opacity="0.75"/>
<path d="M351.097 669.79C351.198 669.291 350.141 669.331 349.006 670.062C347.882 670.822 346.373 672.13 346.684 672.815C346.998 673.49 347.242 674.445 349.329 673.794C351.42 673.13 351.697 673.012 351.855 672.229C352.02 671.469 350.946 670.539 351.097 669.79L351.097 669.79Z" fill="#6B3BE7" fill-opacity="0.75"/>
<path d="M357.034 695.102C357.141 692.661 353.169 689.914 353.169 689.914C353.169 689.914 347.958 688.422 347.385 690.878C346.8 693.351 348.079 697.239 349.563 700.015C351.069 702.803 354.312 702.996 355.522 700.94C356.732 698.868 356.973 696.254 357.034 695.102L357.034 695.102Z" fill="#6B3BE7" fill-opacity="0.75"/>
<path d="M332.793 699.552C332.127 698.801 331.927 695.829 330.726 696.479C329.528 697.119 328.686 698.287 328.192 700.771C327.696 703.244 328.549 705.652 330.11 704.526C331.655 703.414 333.336 701.706 333.331 700.818C333.334 699.908 332.793 699.552 332.793 699.552L332.793 699.552Z" fill="#6B3BE7" fill-opacity="0.75"/>
<path d="M339.122 737.125C338.006 734.059 337.191 732.129 333.807 733.888C330.438 735.6 328.924 734.774 329.492 738.194C330.071 741.565 332.222 745.464 333.67 747.53C335.141 749.578 337.307 749.406 338.57 746.97C339.845 744.576 341.044 740.808 340.721 739.794C340.398 738.723 339.29 737.618 339.122 737.125Z" fill="#6B3BE7" fill-opacity="0.75"/>
<path d="M354.098 722.875C352.835 724.002 351.957 724.748 351.768 725.709C351.593 726.649 352.62 727.217 353.05 726.843C353.472 726.471 354.883 724.26 355.12 723.609C355.347 722.944 354.431 722.567 354.098 722.875L354.098 722.875Z" fill="#6B3BE7" fill-opacity="0.75"/>
<path d="M384.267 691.631C384.365 690.298 384.661 689.206 383.907 688.875C383.176 688.552 382.556 688.603 382.535 690.031C382.514 691.46 381.663 693.133 382.691 693.25C383.75 693.384 384.222 692.328 384.267 691.631L384.267 691.631Z" fill="#6B3BE7" fill-opacity="0.75"/>
<path d="M384.645 697.721C384.665 697.225 384.564 695.414 383.714 695.777C382.836 696.147 382.988 696.252 382.907 697.565C382.828 698.874 384.274 699.609 384.498 698.938C384.72 698.271 384.619 698.351 384.645 697.721L384.645 697.721Z" fill="#6B3BE7" fill-opacity="0.75"/>
<path d="M385.099 705.012C384.795 704.231 384.452 703.728 384.187 704.202C383.91 704.682 384.031 705.415 384.451 705.593C384.846 705.768 385.099 705.012 385.099 705.012Z" fill="#6B3BE7" fill-opacity="0.75"/>
<path d="M384.85 716.5C384.87 715.647 384.46 714.478 384.087 715.458C383.708 716.468 383.304 717.553 384.017 717.597C384.722 717.649 384.844 717.043 384.85 716.5L384.85 716.5Z" fill="#6B3BE7" fill-opacity="0.75"/>
<path d="M385.241 722.552C385.524 721.891 385.052 720.825 384.447 720.787C383.825 720.754 383.574 722.044 383.773 722.795C383.982 723.533 385.072 722.96 385.241 722.552L385.241 722.552Z" fill="#6B3BE7" fill-opacity="0.75"/>
<path d="M384.872 727.185C385.292 726.431 384.196 725.624 383.952 726.382C383.723 727.146 384.748 727.42 384.872 727.185Z" fill="#6B3BE7" fill-opacity="0.75"/>
<path d="M385.042 729.521C384.887 728.959 384.222 729.093 384.222 729.093C384.222 729.093 384.862 730.369 384.96 729.953C385.042 729.521 385.042 729.521 385.042 729.521Z" fill="#6B3BE7" fill-opacity="0.75"/>
<path d="M385.149 734.332C384.801 733.467 384.26 733.891 384.334 734.446C384.391 734.974 384.33 736.666 384.833 736.396C385.32 736.141 385.375 735.516 385.356 735.091C385.359 734.631 385.149 734.332 385.149 734.332L385.149 734.332Z" fill="#6B3BE7" fill-opacity="0.75"/>
<path d="M386.136 756.289C386.116 755.413 385.816 755.177 385.577 755.471C385.324 755.791 385.959 756.704 385.959 756.704L386.136 756.289Z" fill="#6B3BE7" fill-opacity="0.75"/>
<path d="M319.077 70.4475C318.515 64.3837 315.226 59.3758 312.683 57.8342C310.152 56.2442 305.976 53.9916 302.228 56.8075C298.469 59.6249 294.404 73.0234 297.285 78.2085C300.175 83.397 302.693 83.2064 302.774 86.4147C302.85 89.6214 299.576 95.3742 301.982 99.3827C304.381 103.441 309.086 108.278 312.853 107.239C316.606 106.211 321.043 99.9785 320.416 95.9309C319.791 91.9095 314.728 88.792 314.711 85.2186C314.718 81.6532 319.625 76.5957 319.076 70.448L319.077 70.4475Z" fill="#6B3BE7" fill-opacity="0.75"/>
<path d="M316.425 117.523C316.052 115.333 314.5 111.984 312.973 112.054C311.45 112.11 309.404 112.596 308.245 115.288C307.097 118.01 307.076 118.087 307.743 120.965C308.424 123.864 309.238 124.19 310.461 126.136C311.664 128.064 314.231 129.012 315 126.927C315.786 124.87 316.979 120.938 316.425 117.523Z" fill="#6B3BE7" fill-opacity="0.75"/>
<path d="M316.61 134.985C318.557 132.783 322.652 130.04 328.917 138.318C335.187 146.571 333.462 146.756 334.427 147.742C335.376 148.733 338.059 149.527 339.567 150.551C341.044 151.558 341.158 151.923 341.3 153.89C341.424 155.877 339.663 157.217 338.033 158.66C336.409 160.132 334.735 161.492 331.998 159.17C329.252 156.845 329.534 158.153 328.396 157.557C327.274 156.972 324.301 156.302 323.416 154.003C322.062 150.419 318.83 150.24 318.012 148.137C317.175 146.016 315.089 144.891 315.113 143.38C315.159 141.882 313.29 138.768 316.61 134.985L316.61 134.985Z" fill="#6B3BE7" fill-opacity="0.75"/>
<path d="M320.259 158.709C319.558 156.872 321.246 155.968 318.93 154.616C316.624 153.267 316.015 151.828 314.263 152.632C312.517 153.432 312.284 155.887 311.606 157.515C310.918 159.172 312.652 161.186 312.598 163.31C312.534 165.43 313.098 168.817 312.926 169.685C312.753 170.541 312.56 173.319 313.676 173.996C314.775 174.673 316.861 176.684 318.482 176.107C320.117 175.535 320.998 175.622 321.93 174.124C322.829 172.625 324.698 171.307 324.577 169.237C324.441 167.162 325.048 164.985 322.741 163.641C320.442 162.299 320.679 159.757 320.258 158.709L320.259 158.709Z" fill="#6B3BE7" fill-opacity="0.75"/>
<path d="M337.89 200.531C335.163 197.295 327.555 195.208 327.555 195.208C327.555 195.208 320.417 193.714 316.938 201.151C313.466 208.6 313.28 215.231 314.83 220.025C316.353 224.852 320.192 227.695 323.506 228.74C326.865 229.76 332.869 231.246 336.376 227.544C339.859 223.85 344.553 219.105 343.878 216.608C343.232 214.088 342.108 212.444 342.407 210.971C342.703 209.507 344.206 207.795 342.276 205.969C340.323 204.162 338.662 201.429 337.89 200.531L337.89 200.531Z" fill="#6B3BE7" fill-opacity="0.75"/>
<path d="M295.501 426.775C293.841 424.279 291.475 422.065 290.312 422.529C289.143 423.012 288.402 430.35 289.229 431.571C290.051 432.775 293.47 435.245 295.191 433.808C296.876 432.388 296.325 427.989 295.501 426.775L295.501 426.775Z" fill="#6B3BE7" fill-opacity="0.75"/>
<path d="M313.112 447.306C307.863 444.464 299.027 444.861 299.027 444.861C299.027 444.861 287.432 455.021 287.704 458.972C287.972 462.937 292.835 467.111 298.046 471.322C303.257 475.549 307.829 475.75 313.013 472.869C318.199 469.988 322.443 466.575 322.489 460.887C322.573 455.206 317.276 449.544 313.111 447.306L313.112 447.306Z" fill="#6B3BE7" fill-opacity="0.75"/>
<path d="M319.295 486.197C318.124 484.222 317.87 482.546 316.016 483.943C314.133 485.345 312.644 486.115 313.421 488.062C314.179 489.961 314.497 492.01 316.545 491.064C318.603 490.136 320.549 488.327 319.295 486.197L319.295 486.197Z" fill="#6B3BE7" fill-opacity="0.75"/>
<path d="M339.177 516.776C337.297 515.66 332.599 515.823 332.599 515.823C332.599 515.823 321.333 516.61 322.477 523.049C323.602 529.498 327.29 531.931 330.36 531.273C333.402 530.631 335.489 530.416 337.25 528.19C339.039 525.959 341.432 522.807 341.242 521.069C341.059 519.371 340.761 517.716 339.177 516.776L339.177 516.776Z" fill="#6B3BE7" fill-opacity="0.75"/>
<path d="M306.391 513.578C305.844 511.826 306.174 510.7 305.048 510.564C303.917 510.426 302.916 511.465 301.939 512.869C300.939 514.281 299.99 515.438 302.874 516.166C305.735 516.901 306.896 515.106 306.391 513.578L306.391 513.578Z" fill="#6B3BE7" fill-opacity="0.75"/>
<path d="M288.775 511.523C287.805 508.581 280.969 506.144 279.797 507.072C278.647 507.996 273.551 512.679 274.638 515.735C275.721 518.774 279.098 520.088 281.804 520.785C284.495 521.498 286.43 519.826 287.63 517.766C288.843 515.701 289.91 514.847 288.775 511.523L288.775 511.523Z" fill="#6B3BE7" fill-opacity="0.75"/>
<path d="M288.699 530.772C288.593 529.708 286.997 527.69 285.868 527.999C284.747 528.299 283.596 528.699 283.762 530.596C283.924 532.507 284.5 533.573 286.08 533.264C287.646 532.982 288.836 531.957 288.699 530.772L288.699 530.772Z" fill="#6B3BE7" fill-opacity="0.75"/>
<path d="M300.043 543.498C299.029 543.553 297.502 540.616 296.812 542.34C296.11 544.065 296.112 546.811 298.174 546.697C300.236 546.567 300.678 546.575 301.011 544.931C301.313 543.297 300.84 543.483 300.043 543.498L300.043 543.498Z" fill="#6B3BE7" fill-opacity="0.75"/>
<path d="M330.159 621.569C327.868 619.696 326.609 617.146 324.414 618.303C322.231 619.47 320.355 619.984 320.674 622.882C320.975 625.806 325.321 628.982 325.977 629.279C326.633 629.576 329.907 634.506 331.796 633.084C333.674 631.696 333.081 623.945 330.993 621.912C328.905 619.906 330.159 621.569 330.159 621.569L330.159 621.569Z" fill="#6B3BE7" fill-opacity="0.75"/>
<path d="M321.785 631.66C320.875 630.274 319.078 627.404 317.395 629.526C315.735 631.703 316.151 632.298 315.957 634.206C315.737 636.13 315.412 636.971 314.078 637.417C312.747 637.854 311.886 639.466 309.258 638.408C306.629 637.339 306.452 636.434 304.131 636.51C301.805 636.569 300.235 639.118 298.468 641.781C296.689 644.45 296.63 645.672 297.423 649.752C298.218 653.811 298.806 652.681 303.082 657.064C307.357 661.483 312.019 666.666 315.9 664.939C319.802 663.23 323.069 659.272 322.786 657.062C322.505 654.894 319.747 652.753 319.871 649.391C320.002 646.042 321.098 644.13 322.046 642.915C323.003 641.656 324.704 637.56 324.017 635.639C323.326 633.716 322.335 632.47 321.785 631.66L321.785 631.66Z" fill="#6B3BE7" fill-opacity="0.75"/>
<path d="M296.139 662.456C293.962 657.448 292.542 657.314 288.513 655.255C284.46 653.207 283.547 653.392 281.367 655.45C279.188 657.493 272.923 658.588 279.738 668.084C286.576 677.62 288.655 677.863 291.617 678.1C294.608 678.326 300.031 675.124 299.929 672.952C299.815 670.832 297.244 664.984 296.139 662.456L296.139 662.456Z" fill="#6B3BE7" fill-opacity="0.75"/>
<path d="M259.871 336.385C261.254 332.011 266.699 329.964 269.277 330.654C271.843 331.334 274.449 336.072 274.445 337.753C274.447 339.445 272.441 341.921 270.99 344.144C269.52 346.393 268.048 349.667 265.615 349.191C263.166 348.703 259.976 350.263 258.975 348.536C257.962 346.831 256.984 345.804 257.692 343.054C258.393 340.322 259.411 337.807 259.871 336.385L259.871 336.385Z" fill="#6B3BE7" fill-opacity="0.75"/>
<path d="M254.557 334.157C254.665 331.172 253.69 329.087 251.008 329.881C248.301 330.75 248.208 329.512 245.097 334.154C241.99 338.781 242.055 335.906 241.119 339.776C240.189 343.643 243.33 343.937 246.249 344.52C249.17 345.099 249.449 345.484 251.737 342.395C254.051 339.288 254.441 337.329 254.557 334.157L254.557 334.157Z" fill="#6B3BE7" fill-opacity="0.75"/>
<path d="M257.606 318.721C257.252 317.047 254.287 316.7 254.287 316.7C254.287 316.7 250.431 319.976 251.869 321.289C253.305 322.581 254.622 324.377 256.896 323.294C259.126 322.233 257.873 319.936 257.605 318.721L257.606 318.721Z" fill="#6B3BE7" fill-opacity="0.75"/>
<path d="M210.712 325.318C207.542 327.136 209.358 326.9 202.518 329.088C195.673 331.29 193.984 327.93 192.038 332.595C190.091 337.291 187.207 338.213 190.876 340.975C194.542 343.742 194.169 344.811 198.505 344.17C202.865 343.506 209.903 343.891 212.282 340.315C214.669 336.73 218.344 334.423 216.316 330.128C214.309 325.849 212.224 324.436 210.711 325.318L210.712 325.318Z" fill="#6B3BE7" fill-opacity="0.75"/>
<path d="M223.791 330.924C224.201 329.868 223.887 327.914 222.423 328.462C220.96 329.021 219.368 330.236 220.176 331.241C220.985 332.241 223.121 332.65 223.791 330.924L223.791 330.924Z" fill="#6B3BE7" fill-opacity="0.75"/>
<path d="M261.19 296.287C260.817 292.595 258.229 290.807 255.257 289.534C252.308 288.27 250.293 287.379 250.293 287.379C250.293 287.379 246.71 287.512 244.474 288.577C242.243 289.643 241.225 288.806 238.979 291.7C236.708 294.623 233.917 298.464 234.859 301.365C235.813 304.249 237.553 310.016 241.99 311.385C246.46 312.777 249.996 312.794 254.248 310.096C258.495 307.397 259.293 306.716 260.019 303.957C260.723 301.263 261.599 300.238 261.191 296.287L261.19 296.287Z" fill="#6B3BE7" fill-opacity="0.75"/>
<path d="M242.057 262.43C242.715 265.923 245.549 263.475 247.633 266.737C249.672 270.026 251.246 273.205 251.118 275.523C250.987 277.882 250.259 280.782 248.961 282.205C247.669 283.64 246.933 284.819 245.525 285.072C244.12 285.316 242.151 285.913 240.523 284.753C238.89 283.591 238.628 281.52 236.789 280.648C234.913 279.779 234.504 279.358 233.584 277.969C232.68 276.611 231.867 274.751 230.665 274.022C229.466 273.253 229.67 271.271 229.972 270.674C230.256 270.055 231.916 269.366 233.413 267.793C234.898 266.241 237.048 264.806 236.509 263.183C235.976 261.572 235.269 261.765 233.883 261.157C232.478 260.515 231.709 260.901 231.667 257.838C231.6 254.77 231.815 254.499 231.127 253.662C230.462 252.865 230.027 251.602 228.077 251.216C226.125 250.834 222.321 248.716 222.321 248.716C222.321 248.716 219.533 243.956 218.797 241.756C218.06 239.586 215.852 239.67 215.885 236.795C215.968 233.943 217.097 233.32 218.481 230.554C219.883 227.78 220.568 225.064 223.426 223.435C226.295 221.817 225.34 219.765 229.015 220.837C232.707 221.91 233.337 219.473 238.753 223.756C244.143 228.041 245.202 225.214 246.289 229.983C247.394 234.764 247.876 236.536 246.263 239.614C244.635 242.661 243.993 249.279 242.699 249.022C241.406 248.765 239.987 249.004 239.395 250.416C238.765 251.815 239.07 252.88 240.189 254.103C241.276 255.342 241.861 255.797 241.805 257.79C241.718 259.844 241.882 261.552 242.057 262.43L242.057 262.43Z" fill="#6B3BE7" fill-opacity="0.75"/>
<path d="M221.507 187.801C221.234 190.96 220.951 192.417 221.627 194.926C222.32 197.431 222.192 198.068 223.167 199.943C224.152 201.852 222.832 202.587 224.219 204.888C225.62 207.195 228.43 210.978 228.727 212.034C229.017 213.11 228.66 214.898 227.498 216.52C226.322 218.148 226.501 219.002 225.131 219.1C223.754 219.144 222.561 218.403 221.25 217.323C219.939 216.2 219.812 213.484 219.812 213.484C219.812 213.484 221.085 211.366 219.925 208.609C218.787 205.849 219.953 205.9 217.805 203.946C215.664 202.004 215.629 203.862 214.995 201.038C214.375 198.218 213.681 197.415 212.986 196.748C212.272 196.091 211.968 195.026 209.969 193.967C207.998 192.887 204.599 192.21 203.158 192.63C201.734 193.003 201.314 194.281 199.426 193.565C197.537 192.854 197.992 191.43 196.462 190.604C194.911 189.806 192.201 189.946 191.415 188.775C190.622 187.624 188.505 185.508 186.98 184.698C185.445 183.885 182.228 179.709 181.905 177.931C181.574 176.207 178.671 173.759 179.448 169.849C180.212 165.961 180.634 161.309 183.094 158.253C185.539 155.193 186.553 149.296 189.304 147.311C192.063 145.334 195.599 143.665 198.017 142.622C200.408 141.58 211.192 144.231 216.043 148.725C220.899 153.247 224.52 155.484 225.978 159.985C227.458 164.499 228.146 164.314 228.379 169.236C228.575 174.172 226.992 174.536 229.326 176.361C231.672 178.18 232.465 178.342 233.741 177.912C235.006 177.483 235.63 176.941 236.186 178.398C236.745 179.86 236.484 181.991 235.317 181.94C234.142 181.871 234.13 183.737 232.109 182.817C230.077 181.915 229.433 182.618 230.384 184.683C231.342 186.73 231.368 188.233 230.56 188.941C229.748 189.617 228.154 189.998 228.346 188.997C228.539 188.037 227.044 183.686 225.424 183.357C223.791 183.039 224.434 182.32 223.002 184.414C221.607 186.463 221.507 187.801 221.507 187.801L221.507 187.801Z" fill="#6B3BE7" fill-opacity="0.75"/>
<path d="M254.751 116.686C257.058 111.801 252.825 109.696 247.169 109.525C241.52 109.347 238.23 109.169 237.153 114.63C236.075 120.111 233.996 125.862 238.823 127.765C243.66 129.667 250.747 127.282 251.756 124.631C252.734 121.991 253.917 118.433 254.752 116.686L254.751 116.686Z" fill="#6B3BE7" fill-opacity="0.75"/>
<path d="M242.072 90.7917C241.803 87.8374 241.259 87.8049 239.408 86.0068C237.558 84.2353 236.446 84.1621 235.437 83.0139C234.406 81.8842 236.967 78.4763 238.003 77.2342C239.016 76.0262 240.192 74.0681 239.293 70.7421C238.372 67.4189 237.462 67.2329 236.731 66.1448C236.012 65.0664 233.546 62.3726 233.506 60.9548C233.468 59.5321 231.888 55.6179 231.836 53.5459C231.757 51.5016 228.847 48.7159 228.523 50.3791C228.195 52.0407 229.749 55.3382 229.822 57.2604C229.927 59.183 230.489 61.9302 230.895 62.9731C231.324 63.9975 232.582 64.8816 231.202 66.3285C229.787 67.7733 231.368 66.2134 229.096 70.4765C226.843 74.7571 225.016 74.5443 226.693 78.6601C228.401 82.7607 232.501 80.2874 232.76 84.5635C233.005 88.8614 229.074 88.8683 231.026 93.3367C232.968 97.8176 234.623 97.3523 236.904 98.6087C239.16 99.846 240.301 100.527 240.898 98.2883C241.513 96.0298 242.225 92.396 242.071 90.7919L242.072 90.7917Z" fill="#6B3BE7" fill-opacity="0.75"/>
<path d="M247.968 98.4002C247.649 97.3461 248.208 97.1848 246.217 96.9305C244.205 96.7213 243.246 96.8113 242.702 97.9678C242.152 99.1382 241.854 99.8413 241.824 100.8C241.792 101.732 241.898 102.842 242.552 102.662C243.236 102.476 244.959 103.302 246.154 102.76C247.36 102.201 248.716 100.898 247.968 98.4L247.968 98.4002Z" fill="#6B3BE7" fill-opacity="0.75"/>
<path d="M252 91.477C251.484 90.9302 249.709 91.1967 249.709 91.1967C249.709 91.1967 250.318 94.453 251.045 93.9467C251.774 93.478 252 91.477 252 91.477L252 91.477Z" fill="#6B3BE7" fill-opacity="0.75"/>
<path d="M257.454 83.7619C257.048 82.583 256.763 81.7452 255.652 81.8237C254.522 81.9223 253.563 82.8399 254.281 83.9075C255.013 85.0064 256.309 87.166 257.212 85.7627C258.129 84.3485 257.454 83.7619 257.454 83.7619L257.454 83.7619Z" fill="#6B3BE7" fill-opacity="0.75"/>
<path d="M264.737 88.3385C264.296 87.0167 261.937 88.253 261.937 88.253C261.937 88.253 262.193 90.0291 263.107 90.9976C264.031 91.9694 264.997 91.8294 265.237 90.614C265.474 89.4235 265.627 91.0277 264.737 88.3386L264.737 88.3385Z" fill="#6B3BE7" fill-opacity="0.75"/>
<path d="M233.818 32.3997C230.548 28.5247 227.973 27.768 227.973 27.768C227.973 27.768 219.508 30.8147 219.202 35.4756C218.934 40.1497 219.409 44.784 222.685 45.7538C225.948 46.7187 228.221 47.9515 230.83 45.1574C233.417 42.3817 234.448 41.9188 234.464 38.6445C234.5 35.3565 234.465 33.1437 233.818 32.3995L233.818 32.3997Z" fill="#6B3BE7" fill-opacity="0.75"/>
<path d="M225.742 12.7148C224.219 11.5236 221.979 10.3913 221.357 11.8455C220.761 13.2829 220.826 15.3489 222.579 16.0177C224.331 16.6708 225.547 16.9113 225.873 15.2543C226.217 13.6085 226.577 13.3412 225.742 12.7148L225.742 12.7148Z" fill="#6B3BE7" fill-opacity="0.75"/>
<path d="M222.167 1.46017C221.408 0.137107 220.624 -0.288306 220.086 0.891742C219.534 2.04027 219.808 2.26154 220.391 3.324C220.977 4.37716 222.571 4.20984 222.658 3.7636C222.747 3.29706 222.528 2.0784 222.167 1.46026L222.167 1.46017Z" fill="#6B3BE7" fill-opacity="0.75"/>
</svg>
