<?xml version="1.0" encoding="UTF-8"?>
<svg width="700pt" height="700pt" version="1.1" viewBox="0 0 700 700" xmlns="http://www.w3.org/2000/svg" xmlns:xlink="http://www.w3.org/1999/xlink">
 <defs>
  <symbol id="v" overflow="visible">
   <path d="m0.92188-0.0625c-0.054687 0.03125-0.10547 0.054688-0.15625 0.0625-0.042969 0.0078125-0.09375 0.015625-0.15625 0.015625-0.16797 0-0.30469-0.046875-0.40625-0.14062-0.09375-0.09375-0.14062-0.21875-0.14062-0.375s0.046875-0.28125 0.14062-0.375c0.10156-0.09375 0.23828-0.14062 0.40625-0.14062 0.0625 0 0.11328 0.007813 0.15625 0.015625 0.050781 0.011719 0.10156 0.027344 0.15625 0.046875v0.21875c-0.054687-0.03125-0.10547-0.050781-0.15625-0.0625-0.042969-0.019531-0.089844-0.03125-0.14062-0.03125-0.085938 0-0.15625 0.03125-0.21875 0.09375-0.054688 0.054687-0.078125 0.13281-0.078125 0.23438 0 0.10547 0.023437 0.1875 0.078125 0.25 0.0625 0.054688 0.13281 0.078125 0.21875 0.078125 0.050781 0 0.097656-0.003906 0.14062-0.015625 0.050781-0.019531 0.10156-0.046875 0.15625-0.078125z"/>
  </symbol>
  <symbol id="d" overflow="visible">
   <path d="m0.67188-0.54688c-0.023437-0.007813-0.042969-0.015625-0.0625-0.015625-0.023437-0.007812-0.042969-0.015625-0.0625-0.015625-0.0625 0-0.10938 0.023437-0.14062 0.0625-0.03125 0.042969-0.046875 0.10156-0.046875 0.17188v0.34375h-0.25v-0.75h0.25v0.125c0.03125-0.050781 0.0625-0.085938 0.09375-0.10938 0.039063-0.019531 0.09375-0.03125 0.15625-0.03125h0.015625 0.046875z"/>
  </symbol>
  <symbol id="a" overflow="visible">
   <path d="m0.85938-0.375v0.0625h-0.5625c0.007813 0.0625 0.03125 0.10938 0.0625 0.14062 0.039063 0.023437 0.09375 0.03125 0.15625 0.03125 0.050781 0 0.10156-0.003906 0.15625-0.015625 0.050781-0.019531 0.10156-0.046875 0.15625-0.078125v0.1875c-0.054687 0.023438-0.10938 0.039062-0.17188 0.046875-0.054688 0.0078125-0.10938 0.015625-0.17188 0.015625-0.13672 0-0.24219-0.03125-0.3125-0.09375-0.074219-0.070313-0.10938-0.17188-0.10938-0.29688s0.035156-0.21875 0.10938-0.28125c0.070313-0.070312 0.17188-0.10938 0.29688-0.10938s0.21875 0.039063 0.28125 0.10938c0.070312 0.0625 0.10938 0.15625 0.10938 0.28125zm-0.23438-0.078125c0-0.050781-0.015625-0.085937-0.046875-0.10938-0.023437-0.03125-0.058594-0.046875-0.10938-0.046875-0.042969 0-0.078125 0.015625-0.10938 0.046875-0.03125 0.023438-0.046875 0.058594-0.046875 0.10938z"/>
  </symbol>
  <symbol id="k" overflow="visible">
   <path d="m0.45312-0.34375c-0.054687 0-0.09375 0.011719-0.125 0.03125-0.023437 0.023438-0.03125 0.046875-0.03125 0.078125s0.007813 0.058594 0.03125 0.078125c0.019531 0.011719 0.050781 0.015625 0.09375 0.015625 0.039063 0 0.078125-0.015625 0.10938-0.046875s0.046875-0.070312 0.046875-0.125v-0.03125zm0.35938-0.078125v0.42188h-0.23438v-0.10938c-0.03125 0.042969-0.070313 0.074219-0.10938 0.09375-0.042969 0.019531-0.089844 0.03125-0.14062 0.03125-0.085937 0-0.15234-0.019531-0.20312-0.0625-0.042969-0.039062-0.0625-0.097656-0.0625-0.17188 0-0.09375 0.023438-0.16016 0.078125-0.20312 0.0625-0.039063 0.16016-0.0625 0.29688-0.0625h0.14062v-0.015625c0-0.039062-0.015625-0.066406-0.046875-0.078125-0.03125-0.019531-0.078125-0.03125-0.14062-0.03125-0.054687 0-0.10156 0.007813-0.14062 0.015625-0.042969 0.011719-0.085938 0.027344-0.125 0.046875v-0.1875c0.050781-0.007813 0.10156-0.015625 0.15625-0.015625 0.050781-0.007812 0.10156-0.015625 0.15625-0.015625 0.13281 0 0.22656 0.027344 0.28125 0.078125 0.0625 0.054688 0.09375 0.14062 0.09375 0.26562z"/>
  </symbol>
  <symbol id="c" overflow="visible">
   <path d="m0.375-0.96875v0.21875h0.25v0.17188h-0.25v0.3125c0 0.042969 0.003906 0.070313 0.015625 0.078125 0.019531 0.011719 0.050781 0.015625 0.09375 0.015625h0.125v0.17188h-0.20312c-0.10547 0-0.17969-0.019531-0.21875-0.0625-0.03125-0.039062-0.046875-0.10938-0.046875-0.20312v-0.3125h-0.125v-0.17188h0.125v-0.21875z"/>
  </symbol>
  <symbol id="j" overflow="visible">
   <path d="m0.625-0.64062v-0.40625h0.25v1.0469h-0.25v-0.10938c-0.03125 0.042969-0.070312 0.074219-0.10938 0.09375-0.042969 0.019531-0.089844 0.03125-0.14062 0.03125-0.09375 0-0.17188-0.035156-0.23438-0.10938-0.054688-0.070312-0.078125-0.16406-0.078125-0.28125 0-0.11328 0.023438-0.20703 0.078125-0.28125 0.0625-0.070312 0.14062-0.10938 0.23438-0.10938 0.050781 0 0.097656 0.011719 0.14062 0.03125 0.039063 0.023437 0.078125 0.054687 0.10938 0.09375zm-0.15625 0.48438c0.050781 0 0.085938-0.015625 0.10938-0.046875 0.03125-0.039063 0.046875-0.097656 0.046875-0.17188 0-0.070312-0.015625-0.125-0.046875-0.15625-0.023437-0.039062-0.058594-0.0625-0.10938-0.0625-0.054688 0-0.09375 0.023438-0.125 0.0625-0.023438 0.03125-0.03125 0.085938-0.03125 0.15625 0 0.074219 0.007812 0.13281 0.03125 0.17188 0.03125 0.03125 0.070312 0.046875 0.125 0.046875z"/>
  </symbol>
  <symbol id="i" overflow="visible">
   <path d="m0.51562-0.15625c0.050781 0 0.085937-0.015625 0.10938-0.046875 0.03125-0.039063 0.046875-0.097656 0.046875-0.17188 0-0.070312-0.015625-0.125-0.046875-0.15625-0.023438-0.039062-0.058594-0.0625-0.10938-0.0625-0.054687 0-0.09375 0.023438-0.125 0.0625-0.023437 0.03125-0.03125 0.085938-0.03125 0.15625 0 0.074219 0.007813 0.13281 0.03125 0.17188 0.03125 0.03125 0.070313 0.046875 0.125 0.046875zm-0.15625-0.48438c0.03125-0.039063 0.066406-0.070313 0.10938-0.09375 0.039062-0.019531 0.085938-0.03125 0.14062-0.03125 0.09375 0 0.16406 0.039063 0.21875 0.10938 0.0625 0.074219 0.09375 0.16797 0.09375 0.28125 0 0.11719-0.03125 0.21094-0.09375 0.28125-0.054687 0.074219-0.125 0.10938-0.21875 0.10938-0.054687 0-0.10156-0.011719-0.14062-0.03125-0.042969-0.019531-0.078125-0.050781-0.10938-0.09375v0.10938h-0.25v-1.0469h0.25z"/>
  </symbol>
  <symbol id="h" overflow="visible">
   <path d="m0.015625-0.75h0.23438l0.20312 0.51562 0.17188-0.51562h0.25l-0.3125 0.82812c-0.042969 0.082031-0.085938 0.14062-0.125 0.17188-0.042969 0.03125-0.09375 0.046875-0.15625 0.046875h-0.14062v-0.15625h0.078125c0.039062 0 0.066406-0.011719 0.078125-0.03125 0.019531-0.011719 0.035156-0.03125 0.046875-0.0625l0.015625-0.015625z"/>
  </symbol>
  <symbol id="f" overflow="visible">
   <path d="m0.5625-0.35938c0 0.054687 0.007812 0.09375 0.03125 0.125 0.019531 0.03125 0.050781 0.046875 0.09375 0.046875 0.039062 0 0.070312-0.015625 0.09375-0.046875 0.019531-0.03125 0.03125-0.070313 0.03125-0.125 0-0.050781-0.011719-0.09375-0.03125-0.125-0.023438-0.03125-0.054688-0.046875-0.09375-0.046875-0.042969 0-0.074219 0.015625-0.09375 0.046875-0.023438 0.03125-0.03125 0.074219-0.03125 0.125zm0.26562 0.20312c-0.011719 0.03125-0.03125 0.058594-0.0625 0.078125-0.03125 0.011719-0.070313 0.015625-0.10938 0.015625-0.074219 0-0.13672-0.023438-0.1875-0.078125-0.042969-0.050781-0.0625-0.125-0.0625-0.21875s0.019531-0.16406 0.0625-0.21875c0.050781-0.050781 0.11328-0.078125 0.1875-0.078125 0.039062 0 0.078125 0.011719 0.10938 0.03125 0.03125 0.011719 0.050781 0.03125 0.0625 0.0625v-0.09375h0.14062v0.46875c0.0625-0.007812 0.10938-0.035156 0.14062-0.078125 0.03125-0.039063 0.046875-0.097656 0.046875-0.17188 0-0.039062-0.011719-0.082031-0.03125-0.125-0.011719-0.039062-0.027344-0.078125-0.046875-0.10938-0.042969-0.050781-0.10156-0.09375-0.17188-0.125-0.0625-0.03125-0.13281-0.046875-0.20312-0.046875-0.054687 0-0.10547 0.011719-0.15625 0.03125-0.042969 0.011719-0.085937 0.027344-0.125 0.046875-0.0625 0.054687-0.11719 0.11719-0.15625 0.1875-0.03125 0.0625-0.046875 0.13672-0.046875 0.21875 0 0.0625 0.007812 0.125 0.03125 0.1875 0.019531 0.054687 0.054688 0.10547 0.10938 0.15625 0.039063 0.039062 0.085937 0.070312 0.14062 0.09375 0.0625 0.019531 0.12891 0.03125 0.20312 0.03125 0.050781 0 0.10156-0.011719 0.15625-0.03125 0.0625-0.023438 0.11328-0.046875 0.15625-0.078125l0.0625 0.10938c-0.054687 0.039063-0.11719 0.070313-0.1875 0.09375-0.0625 0.019531-0.125 0.03125-0.1875 0.03125-0.085937 0-0.16406-0.015625-0.23438-0.046875-0.074219-0.023438-0.14062-0.0625-0.20312-0.125-0.054687-0.054688-0.09375-0.11328-0.125-0.1875-0.03125-0.070312-0.046875-0.14844-0.046875-0.23438 0-0.082031 0.015625-0.16016 0.046875-0.23438 0.03125-0.070312 0.070313-0.14062 0.125-0.20312 0.050781-0.050781 0.11328-0.09375 0.1875-0.125 0.082031-0.03125 0.16406-0.046875 0.25-0.046875 0.09375 0 0.17969 0.023438 0.26562 0.0625 0.082031 0.03125 0.14844 0.085938 0.20312 0.15625 0.03125 0.054688 0.054687 0.10547 0.078125 0.15625 0.019531 0.042969 0.03125 0.09375 0.03125 0.15625 0 0.11719-0.039062 0.21094-0.10938 0.28125-0.074219 0.0625-0.17969 0.09375-0.3125 0.09375h-0.03125z"/>
  </symbol>
  <symbol id="u" overflow="visible">
   <path d="m0.046875-0.75h0.23438l0.125 0.51562 0.125-0.51562h0.20312l0.125 0.51562 0.125-0.51562h0.23438l-0.1875 0.75h-0.26562l-0.125-0.51562-0.125 0.51562h-0.26562z"/>
  </symbol>
  <symbol id="e" overflow="visible">
   <path d="m0.875-0.45312v0.45312h-0.25v-0.34375-0.14062c0-0.019531-0.007812-0.039063-0.015625-0.0625-0.011719-0.007813-0.027344-0.019531-0.046875-0.03125-0.011719-0.007813-0.027344-0.015625-0.046875-0.015625-0.054687 0-0.09375 0.023438-0.125 0.0625-0.023437 0.042969-0.03125 0.09375-0.03125 0.15625v0.375h-0.25v-0.75h0.25v0.10938c0.03125-0.039063 0.066406-0.070313 0.10938-0.09375 0.039062-0.019531 0.085938-0.03125 0.14062-0.03125 0.082031 0 0.14453 0.027344 0.1875 0.078125 0.050781 0.054688 0.078125 0.13281 0.078125 0.23438z"/>
  </symbol>
  <symbol id="t" overflow="visible">
   <path d="m0.1875-1h0.25v0.375l-0.03125 0.28125h-0.17188l-0.046875-0.28125zm0 0.76562h0.25v0.23438h-0.25z"/>
  </symbol>
  <symbol id="g" overflow="visible">
   <path d="m0.71875-0.73438v0.20312c-0.03125-0.019531-0.0625-0.035156-0.09375-0.046875-0.03125-0.007813-0.070312-0.015625-0.10938-0.015625-0.0625 0-0.11719 0.023438-0.15625 0.0625-0.03125 0.03125-0.046875 0.085938-0.046875 0.15625 0 0.074219 0.015625 0.13281 0.046875 0.17188 0.039063 0.03125 0.09375 0.046875 0.15625 0.046875 0.039063 0 0.078125-0.003906 0.10938-0.015625 0.039062-0.007813 0.070312-0.023437 0.09375-0.046875v0.20312c-0.03125 0.011719-0.070312 0.015625-0.10938 0.015625-0.042969 0.0078125-0.085937 0.015625-0.125 0.015625-0.13672 0-0.24219-0.03125-0.3125-0.09375-0.074219-0.070313-0.10938-0.17188-0.10938-0.29688s0.035156-0.21875 0.10938-0.28125c0.070313-0.070312 0.17578-0.10938 0.3125-0.10938 0.039063 0 0.082031 0.007813 0.125 0.015625 0.039063 0 0.078125 0.007812 0.10938 0.015625z"/>
  </symbol>
  <symbol id="b" overflow="visible">
   <path d="m0.46875-0.59375c-0.054688 0-0.09375 0.023438-0.125 0.0625-0.023438 0.03125-0.03125 0.085938-0.03125 0.15625 0 0.074219 0.007812 0.13281 0.03125 0.17188 0.03125 0.03125 0.070312 0.046875 0.125 0.046875 0.050781 0 0.09375-0.015625 0.125-0.046875 0.03125-0.039063 0.046875-0.097656 0.046875-0.17188 0-0.070312-0.015625-0.125-0.046875-0.15625-0.03125-0.039062-0.074219-0.0625-0.125-0.0625zm0-0.17188c0.13281 0 0.23828 0.039063 0.3125 0.10938 0.070312 0.0625 0.10938 0.15625 0.10938 0.28125s-0.039063 0.22656-0.10938 0.29688c-0.074219 0.0625-0.17969 0.09375-0.3125 0.09375-0.125 0-0.22656-0.03125-0.29688-0.09375-0.074219-0.070313-0.10938-0.17188-0.10938-0.29688s0.035156-0.21875 0.10938-0.28125c0.070313-0.070312 0.17188-0.10938 0.29688-0.10938z"/>
  </symbol>
  <symbol id="s" overflow="visible">
   <path d="m0.70312-0.73438v0.1875c-0.054687-0.019531-0.10547-0.035156-0.15625-0.046875-0.042969-0.007812-0.085937-0.015625-0.125-0.015625-0.054687 0-0.089844 0.007813-0.10938 0.015625-0.023438 0.011719-0.03125 0.027344-0.03125 0.046875 0 0.023437 0.003906 0.039063 0.015625 0.046875 0.019531 0.011719 0.054687 0.023438 0.10938 0.03125h0.03125c0.125 0.023438 0.20703 0.046875 0.25 0.078125 0.039062 0.03125 0.0625 0.089844 0.0625 0.17188 0 0.085938-0.03125 0.14844-0.09375 0.1875-0.054688 0.03125-0.13672 0.046875-0.25 0.046875-0.054688 0-0.10547-0.0078125-0.15625-0.015625-0.054688 0-0.10938-0.0078125-0.17188-0.03125v-0.17188c0.050781 0.023437 0.10156 0.039063 0.15625 0.046875 0.050781 0.011719 0.10156 0.015625 0.15625 0.015625 0.039063 0 0.070313-0.003906 0.09375-0.015625 0.03125-0.007812 0.046875-0.03125 0.046875-0.0625 0-0.019531-0.011719-0.035156-0.03125-0.046875-0.023438-0.007813-0.054688-0.019531-0.09375-0.03125h-0.046875c-0.10547-0.007813-0.17969-0.03125-0.21875-0.0625-0.042969-0.039063-0.0625-0.097656-0.0625-0.17188 0-0.082031 0.023437-0.14062 0.078125-0.17188 0.050781-0.039063 0.13281-0.0625 0.25-0.0625 0.039062 0 0.082031 0.007813 0.125 0.015625 0.050781 0 0.10938 0.007812 0.17188 0.015625z"/>
  </symbol>
  <symbol id="r" overflow="visible">
   <path d="m0.60938-1.0469v0.15625h-0.125c-0.042969 0-0.070313 0.011719-0.078125 0.03125-0.011719 0.011719-0.015625 0.03125-0.015625 0.0625v0.046875h0.20312v0.17188h-0.20312v0.57812h-0.25v-0.57812h-0.10938v-0.17188h0.10938v-0.046875c0-0.082031 0.019531-0.14453 0.0625-0.1875 0.050781-0.039063 0.125-0.0625 0.21875-0.0625z"/>
  </symbol>
  <symbol id="q" overflow="visible">
   <path d="m0.8125-0.625c0.03125-0.050781 0.066406-0.085938 0.10938-0.10938 0.039063-0.019531 0.085937-0.03125 0.14062-0.03125 0.082031 0 0.14453 0.027344 0.1875 0.078125 0.050781 0.054688 0.078125 0.13281 0.078125 0.23438v0.45312h-0.25v-0.39062-0.015625-0.03125c0-0.050781-0.011719-0.085938-0.03125-0.10938-0.011719-0.03125-0.03125-0.046875-0.0625-0.046875-0.042969 0-0.078125 0.023438-0.10938 0.0625-0.023438 0.042969-0.03125 0.09375-0.03125 0.15625v0.375h-0.25v-0.39062c0-0.082031-0.007812-0.13281-0.015625-0.15625-0.011719-0.03125-0.039063-0.046875-0.078125-0.046875-0.042969 0-0.078125 0.023438-0.10938 0.0625-0.023437 0.042969-0.03125 0.09375-0.03125 0.15625v0.375h-0.25v-0.75h0.25v0.10938c0.03125-0.039063 0.0625-0.070313 0.09375-0.09375 0.039063-0.019531 0.082031-0.03125 0.125-0.03125 0.050781 0 0.097656 0.015625 0.14062 0.046875 0.039062 0.023438 0.070312 0.054688 0.09375 0.09375z"/>
  </symbol>
  <symbol id="p" overflow="visible">
   <path d="m0.875-0.45312v0.45312h-0.25v-0.34375-0.14062c0-0.019531-0.007812-0.039063-0.015625-0.0625-0.011719-0.007813-0.027344-0.019531-0.046875-0.03125-0.011719-0.007813-0.027344-0.015625-0.046875-0.015625-0.054687 0-0.09375 0.023438-0.125 0.0625-0.023437 0.042969-0.03125 0.09375-0.03125 0.15625v0.375h-0.25v-1.0469h0.25v0.40625c0.03125-0.039063 0.066406-0.070313 0.10938-0.09375 0.039062-0.019531 0.085938-0.03125 0.14062-0.03125 0.082031 0 0.14453 0.027344 0.1875 0.078125 0.050781 0.054688 0.078125 0.13281 0.078125 0.23438z"/>
  </symbol>
  <symbol id="o" overflow="visible">
   <path d="m0.125-1h0.29688l0.35938 0.6875v-0.6875h0.25v1h-0.29688l-0.35938-0.6875v0.6875h-0.25z"/>
  </symbol>
  <symbol id="n" overflow="visible">
   <path d="m0.10938-0.29688v-0.45312h0.23438v0.078125 0.15625 0.10938 0.14062c0.007812 0.023437 0.019531 0.039063 0.03125 0.046875 0.007812 0.023438 0.019531 0.039062 0.03125 0.046875 0.019531 0.011719 0.039062 0.015625 0.0625 0.015625 0.039062 0 0.078125-0.019531 0.10938-0.0625 0.03125-0.039062 0.046875-0.09375 0.046875-0.15625v-0.375h0.23438v0.75h-0.23438v-0.10938c-0.042969 0.042969-0.085938 0.074219-0.125 0.09375-0.03125 0.019531-0.074219 0.03125-0.125 0.03125-0.085938 0-0.15234-0.023438-0.20312-0.078125-0.042969-0.050781-0.0625-0.12891-0.0625-0.23438z"/>
  </symbol>
  <symbol id="m" overflow="visible">
   <path d="m0.125-1h0.4375c0.125 0 0.21875 0.03125 0.28125 0.09375 0.070312 0.054688 0.10938 0.13281 0.10938 0.23438 0 0.10547-0.039063 0.1875-0.10938 0.25-0.0625 0.054687-0.15625 0.078125-0.28125 0.078125h-0.17188v0.34375h-0.26562zm0.26562 0.1875v0.28125h0.14062c0.050781 0 0.085938-0.007812 0.10938-0.03125 0.03125-0.03125 0.046875-0.066406 0.046875-0.10938 0-0.050781-0.015625-0.085937-0.046875-0.10938-0.023437-0.019531-0.058594-0.03125-0.10938-0.03125z"/>
  </symbol>
  <symbol id="l" overflow="visible">
   <path d="m0.10938-0.75h0.25v0.73438c0 0.10156-0.027344 0.17969-0.078125 0.23438-0.054688 0.050781-0.12109 0.078125-0.20312 0.078125h-0.125v-0.15625h0.046875c0.039062 0 0.066406-0.011719 0.078125-0.03125 0.019531-0.023438 0.03125-0.0625 0.03125-0.125zm0-0.29688h0.25v0.20312h-0.25z"/>
  </symbol>
 </defs>
 <g>
  <path d="m149.3 271.25h1.3672c22.969-1.0938 69.727-37.188 111.56-78.75 41.836-41.836 77.656-88.594 78.75-111.56v-1.3672-0.27344c-0.27344-4.9219 3.5547-9.0234 8.2031-9.2969 4.9219-0.27344 9.0234 3.5547 9.0234 8.2031v0.27344c1.3672 22.148 39.375 70.82 82.578 114.02 42.93 42.93 89.961 79.844 109.38 78.75 4.6484-0.27344 8.75 3.5547 9.0234 8.2031 0.27344 4.6484-3.2812 8.75-8.2031 9.0234-19.688 1.0938-66.992 39.375-110.47 82.578-43.203 43.203-81.484 90.781-82.578 110.47l-17.5-1.0938c0.82031-19.414-35.82-66.445-78.75-109.38-43.203-43.203-91.875-81.484-114.02-82.578-4.9219-0.27344-8.4766-4.375-8.2031-9.2969 0.27344-4.6484 4.375-8.4766 9.0234-8.2031m125.51-66.445c-33.086 33.086-69.727 62.617-97.617 76.016 27.891 14.766 64.805 45.117 97.891 78.203 32.812 32.812 62.344 68.906 76.016 95.977 14.766-26.797 45.117-62.891 78.203-95.977 33.086-33.086 69.18-63.438 95.977-78.203-26.797-13.672-62.891-43.203-95.977-76.016-33.086-33.086-63.164-69.727-78.203-97.891-13.672 27.891-43.203 64.805-76.016 97.617zm66.445-125.51m-191.95 191.95m-0.27344 0h0.27344"/>
  <path d="m227.23 284.38c-2.4609 0-4.375-2.1875-4.1016-4.6484 0-2.4609 2.1875-4.375 4.6484-4.1016h1.0938c14.219-0.82031 42.93-22.695 68.633-48.398 25.43-25.43 47.578-54.414 48.398-68.633v-1.0938l8.75-0.54688c0.82031 13.672 24.062 43.75 50.586 70 26.25 26.25 55.234 48.945 67.266 48.125 2.4609 0 4.375 1.6406 4.6484 4.1016 0 2.4609-1.6406 4.375-4.1016 4.6484-14.766 0.82031-46.211-22.969-73.828-50.859-20.781-20.781-39.648-43.75-48.125-60.977-7.6562 16.953-26.25 40.195-47.031 60.977-26.797 26.797-57.695 50.039-74.375 50.859h-1.9141z"/>
 </g>
</svg>
