<svg width="89" height="21" viewBox="0 0 89 21" fill="none" xmlns="http://www.w3.org/2000/svg">
<path d="M0.964922 20.9991C2.46545 21.0237 3.92798 20.5276 5.10371 19.5958C5.96395 18.9118 7.03088 18.5396 8.12979 18.5396C9.22872 18.5396 10.2956 18.9118 11.1559 19.5958C12.3434 20.503 13.7963 20.9948 15.2904 20.9948C16.7845 20.9948 18.2375 20.503 19.425 19.5958C20.2852 18.9118 21.3521 18.5396 22.4511 18.5396C23.55 18.5396 24.6169 18.9118 25.4771 19.5958C26.6652 20.5051 28.1198 20.9975 29.6159 20.9975C31.1115 20.9975 32.5661 20.5052 33.7542 19.5958C34.616 18.9112 35.6839 18.5391 36.7845 18.5391C37.885 18.5391 38.9529 18.9112 39.8142 19.5958C40.9906 20.527 42.4526 21.0231 43.953 20.9991C44.4945 20.9991 44.934 20.5602 44.934 20.0182C44.934 19.4768 44.4945 19.0378 43.953 19.0378C42.8493 19.0619 41.7739 18.6881 40.9227 17.9848C39.7341 17.0771 38.2801 16.5853 36.7845 16.5853C35.2889 16.5853 33.8343 17.0771 32.6457 17.9848C31.7854 18.6689 30.7185 19.041 29.6196 19.041C28.5207 19.041 27.4538 18.6689 26.5935 17.9848C25.406 17.0776 23.9536 16.5864 22.459 16.5864C20.9649 16.5864 19.5119 17.0777 18.3244 17.9848C17.4642 18.6689 16.3973 19.041 15.2983 19.041C14.1994 19.041 13.1325 18.6689 12.2723 17.9848C11.0847 17.0776 9.63182 16.5864 8.13772 16.5864C6.64307 16.5864 5.19065 17.0777 4.00316 17.9848C3.15468 18.687 2.08188 19.0603 0.980914 19.0378C0.439469 19.0378 0 19.4768 0 20.0182C0 20.5602 0.439455 20.9991 0.980914 20.9991H0.964922Z" fill="white"/>
<path d="M1.23677 12.7071C2.74892 12.7365 4.22389 12.2372 5.40714 11.2953C6.26791 10.6118 7.33431 10.2396 8.43322 10.2396C9.53268 10.2396 10.5991 10.6118 11.4598 11.2953C12.6474 12.2047 14.1019 12.6975 15.5981 12.6975C17.0942 12.6975 18.5483 12.2047 19.7363 11.2953C20.5971 10.6118 21.6635 10.2396 22.763 10.2396C23.8619 10.2396 24.9282 10.6118 25.789 11.2953C26.9771 12.2047 28.4311 12.6975 29.9273 12.6975C31.4234 12.6975 32.878 12.2047 34.0661 11.2953C34.9274 10.6113 35.9953 10.2386 37.0958 10.2386C38.1964 10.2386 39.2643 10.6113 40.1261 11.2953C41.3094 12.2367 42.7842 12.736 44.2965 12.7071C44.838 12.7071 45.2774 12.2677 45.2774 11.7262C45.2774 11.1842 44.838 10.7453 44.2965 10.7453C43.1805 10.7811 42.0891 10.41 41.2267 9.70083C40.0381 8.79255 38.5835 8.30078 37.0879 8.30078C35.5923 8.30078 34.1382 8.79257 32.9497 9.70083C32.0889 10.3843 31.0225 10.7565 29.9236 10.7565C28.8241 10.7565 27.7577 10.3843 26.897 9.70083C25.7099 8.79361 24.2571 8.30187 22.763 8.30187C21.2683 8.30187 19.8155 8.79367 18.6284 9.70083C17.7676 10.3843 16.7012 10.7565 15.6018 10.7565C14.5029 10.7565 13.4365 10.3843 12.5757 9.70083C11.3887 8.79361 9.9358 8.30187 8.44115 8.30187C6.94704 8.30187 5.49408 8.79367 4.30659 9.70083C3.44422 10.4105 2.35332 10.7821 1.23677 10.7453C0.695328 10.7453 0.255859 11.1842 0.255859 11.7262C0.255859 12.2676 0.695314 12.7071 1.23677 12.7071V12.7071Z" fill="white"/>
<path d="M44.5663 2.45197C43.4626 2.476 42.3872 2.10275 41.536 1.39951C40.3474 0.491755 38.8934 0 37.3978 0C35.9021 0 34.4475 0.491796 33.259 1.39951C32.3987 2.08353 31.3318 2.45572 30.2329 2.45572C29.134 2.45572 28.0671 2.08353 27.2068 1.39951C26.0193 0.492288 24.5664 0.00054649 23.0723 0.00054649C21.5776 0.00054649 20.1252 0.492343 18.9377 1.39951C18.0775 2.08353 17.0105 2.45572 15.9116 2.45572C14.8127 2.45572 13.7458 2.08353 12.8856 1.39951C11.698 0.492288 10.2451 0.00054649 8.751 0.00054649C7.25635 0.00054649 5.80352 0.492343 4.61644 1.39951C3.76743 2.10115 2.69516 2.47494 1.5942 2.45197C1.05275 2.45197 0.613281 2.89143 0.613281 3.43289C0.613281 3.97486 1.05274 4.4138 1.5942 4.4138C3.09472 4.43836 4.5567 3.9423 5.73244 3.01046C6.59321 2.32644 7.6596 1.95425 8.75906 1.95425C9.85799 1.95425 10.9244 2.32644 11.7851 3.01046C12.9722 3.91768 14.425 4.40888 15.9197 4.40888C17.4138 4.40888 18.8668 3.91762 20.0542 3.01046C20.9145 2.32644 21.9814 1.95425 23.0803 1.95425C24.1792 1.95425 25.2462 2.32644 26.1064 3.01046C27.2945 3.91928 28.749 4.41216 30.2446 4.41216C31.7408 4.41216 33.1954 3.9193 34.3834 3.01046C35.2453 2.32591 36.3132 1.95319 37.4138 1.95319C38.5137 1.95319 39.5816 2.32591 40.4435 3.01046C41.6199 3.94172 43.0819 4.43772 44.5823 4.4138C45.1238 4.4138 45.5627 3.97488 45.5627 3.43289C45.5627 2.89144 45.1238 2.45197 44.5823 2.45197H44.5663Z" fill="white"/>
<path d="M43.9649 20.9991C45.4655 21.0237 46.928 20.5276 48.1037 19.5958C48.964 18.9118 50.0309 18.5396 51.1298 18.5396C52.2287 18.5396 53.2956 18.9118 54.1559 19.5958C55.3434 20.503 56.7963 20.9948 58.2904 20.9948C59.7845 20.9948 61.2375 20.503 62.425 19.5958C63.2852 18.9118 64.3521 18.5396 65.4511 18.5396C66.55 18.5396 67.6169 18.9118 68.4771 19.5958C69.6652 20.5051 71.1198 20.9975 72.6159 20.9975C74.1115 20.9975 75.5661 20.5052 76.7542 19.5958C77.616 18.9112 78.6839 18.5391 79.7845 18.5391C80.885 18.5391 81.9529 18.9112 82.8142 19.5958C83.9906 20.527 85.4526 21.0231 86.953 20.9991C87.4945 20.9991 87.934 20.5602 87.934 20.0182C87.934 19.4768 87.4945 19.0378 86.953 19.0378C85.8493 19.0619 84.7739 18.6881 83.9227 17.9848C82.7341 17.0771 81.2801 16.5853 79.7845 16.5853C78.2889 16.5853 76.8343 17.0771 75.6457 17.9848C74.7854 18.6689 73.7185 19.041 72.6196 19.041C71.5207 19.041 70.4538 18.6689 69.5935 17.9848C68.406 17.0776 66.9536 16.5864 65.459 16.5864C63.9649 16.5864 62.5119 17.0777 61.3244 17.9848C60.4642 18.6689 59.3973 19.041 58.2983 19.041C57.1994 19.041 56.1325 18.6689 55.2723 17.9848C54.0847 17.0776 52.6318 16.5864 51.1377 16.5864C49.6431 16.5864 48.1907 17.0777 47.0032 17.9848C46.1547 18.687 45.0819 19.0603 43.9809 19.0378C43.4395 19.0378 43 19.4768 43 20.0182C43 20.5602 43.4395 20.9991 43.9809 20.9991H43.9649Z" fill="white"/>
<path d="M44.2368 12.7071C45.7489 12.7365 47.2239 12.2372 48.4071 11.2953C49.2679 10.6118 50.3343 10.2396 51.4332 10.2396C52.5327 10.2396 53.5991 10.6118 54.4598 11.2953C55.6474 12.2047 57.1019 12.6975 58.5981 12.6975C60.0942 12.6975 61.5483 12.2047 62.7363 11.2953C63.5971 10.6118 64.6635 10.2396 65.763 10.2396C66.8619 10.2396 67.9282 10.6118 68.789 11.2953C69.9771 12.2047 71.4311 12.6975 72.9273 12.6975C74.4234 12.6975 75.878 12.2047 77.0661 11.2953C77.9274 10.6113 78.9953 10.2386 80.0958 10.2386C81.1964 10.2386 82.2643 10.6113 83.1261 11.2953C84.3094 12.2367 85.7842 12.736 87.2965 12.7071C87.838 12.7071 88.2774 12.2677 88.2774 11.7262C88.2774 11.1842 87.838 10.7453 87.2965 10.7453C86.1805 10.7811 85.0891 10.41 84.2267 9.70083C83.0381 8.79255 81.5835 8.30078 80.0879 8.30078C78.5923 8.30078 77.1382 8.79257 75.9497 9.70083C75.0889 10.3843 74.0225 10.7565 72.9236 10.7565C71.8241 10.7565 70.7577 10.3843 69.897 9.70083C68.7099 8.79361 67.2571 8.30187 65.763 8.30187C64.2683 8.30187 62.8155 8.79367 61.6284 9.70083C60.7676 10.3843 59.7012 10.7565 58.6018 10.7565C57.5029 10.7565 56.4365 10.3843 55.5757 9.70083C54.3887 8.79361 52.9358 8.30187 51.4411 8.30187C49.947 8.30187 48.4941 8.79367 47.3066 9.70083C46.4442 10.4105 45.3533 10.7821 44.2368 10.7453C43.6953 10.7453 43.2559 11.1842 43.2559 11.7262C43.2559 12.2676 43.6953 12.7071 44.2368 12.7071V12.7071Z" fill="white"/>
<path d="M87.5663 2.45197C86.4626 2.476 85.3872 2.10275 84.536 1.39951C83.3474 0.491755 81.8934 0 80.3978 0C78.9021 0 77.4475 0.491796 76.259 1.39951C75.3987 2.08353 74.3318 2.45572 73.2329 2.45572C72.134 2.45572 71.0671 2.08353 70.2068 1.39951C69.0193 0.492288 67.5664 0.00054649 66.0723 0.00054649C64.5776 0.00054649 63.1252 0.492343 61.9377 1.39951C61.0775 2.08353 60.0105 2.45572 58.9116 2.45572C57.8127 2.45572 56.7458 2.08353 55.8856 1.39951C54.698 0.492288 53.2451 0.00054649 51.751 0.00054649C50.2563 0.00054649 48.8035 0.492343 47.6164 1.39951C46.7674 2.10115 45.6952 2.47494 44.5942 2.45197C44.0527 2.45197 43.6133 2.89143 43.6133 3.43289C43.6133 3.97486 44.0527 4.4138 44.5942 4.4138C46.0947 4.43836 47.5567 3.9423 48.7324 3.01046C49.5932 2.32644 50.6596 1.95425 51.7591 1.95425C52.858 1.95425 53.9244 2.32644 54.7851 3.01046C55.9722 3.91768 57.425 4.40888 58.9197 4.40888C60.4138 4.40888 61.8668 3.91762 63.0542 3.01046C63.9145 2.32644 64.9814 1.95425 66.0803 1.95425C67.1792 1.95425 68.2462 2.32644 69.1064 3.01046C70.2945 3.91928 71.749 4.41216 73.2446 4.41216C74.7408 4.41216 76.1954 3.9193 77.3834 3.01046C78.2453 2.32591 79.3132 1.95319 80.4138 1.95319C81.5137 1.95319 82.5816 2.32591 83.4435 3.01046C84.6199 3.94172 86.0819 4.43772 87.5823 4.4138C88.1238 4.4138 88.5627 3.97488 88.5627 3.43289C88.5627 2.89144 88.1238 2.45197 87.5823 2.45197H87.5663Z" fill="white"/>
</svg>
